<?xml version="1.0" encoding="UTF-8"?>
<svg width="43px" height="41px" viewBox="0 0 43 41" version="1.1" xmlns="http://www.w3.org/2000/svg" xmlns:xlink="http://www.w3.org/1999/xlink">
    <!-- Generator: Sketch 40.3 (33839) - http://www.bohemiancoding.com/sketch -->
    <title>adduser</title>
    <desc>Created with Sketch.</desc>
    <defs></defs>
    <g id="Page-1" stroke="none" stroke-width="1" fill="none" fill-rule="evenodd">
        <g id="adduser" transform="translate(0.000000, -1.000000)">
            <rect id="Rectangle-15" fill="#D8D8D8" opacity="0" x="0" y="0" width="44" height="44"></rect>
            <path d="M26.2629008,4.57902209 C24.9354445,2.8645176 22.9798122,1.73436962 20.8786934,1.25722388 C18.3956844,0.693355045 15.8254221,1.07418464 13.6065835,2.32528217 C11.7505454,3.37188868 10.3359322,5.07260617 9.63626626,7.0838685 C9.20992993,8.30946491 9.08415975,9.61281805 9.06670908,10.9033965 C9.04848711,12.2506174 9.14909361,13.5973562 9.38814854,14.9238965 C9.59427859,16.0672048 9.87247702,17.2364963 10.3793178,18.2874896 C10.6196743,18.7859425 10.9280499,19.2542665 11.3123503,19.6538483 C11.7063885,20.0635053 12.0967629,20.4839122 12.3277192,21.0122048 C12.5567954,21.5364481 12.5750656,22.1533438 12.174616,22.6005535 C11.7692012,23.0534515 11.1864837,23.3518001 10.6592517,23.6371813 C9.46821917,24.2818438 8.2437315,24.8617172 7.0428167,25.4874828 C5.87521244,26.0958943 4.71705661,26.7409425 3.6334759,27.4909358 C2.62500056,28.1891073 1.62486491,28.9851376 0.968247197,30.0388304 C0.658232623,30.536512 0.428577915,31.0972956 0.330381726,31.6765905 C0.222014013,32.3159985 0.219748318,32.975364 0.179929933,33.6214246 C0.138327915,34.2953001 0.0484714126,34.9668618 0.032081278,35.6421353 C0.0194994395,36.1619436 0.172313341,36.6347026 0.602216928,36.956142 C1.43584809,37.5796902 2.7266676,37.0953136 2.94359585,36.0750759 C3.00168442,35.8019391 2.99671917,35.5174739 3.01513397,35.240095 C3.03933352,34.8777284 3.06541312,34.5155064 3.09019114,34.1530916 C3.11125729,33.8454391 3.12711715,33.5374492 3.14451962,33.2294593 C3.16447702,32.8754806 3.16163285,32.4960972 3.24599383,32.1500243 C3.38506895,31.5794548 3.80509025,31.1199044 4.21898935,30.7254806 C4.67477971,30.2910456 5.18359697,29.9194234 5.70914182,29.5743629 C6.81383688,28.8491959 7.97483688,28.2105591 9.14798487,27.6041241 C10.2806396,27.0186589 11.4535947,26.4976454 12.5496127,25.8440165 C13.5294053,25.2598046 14.5351328,24.5280333 15.0444804,23.4741959 C15.5536833,22.4208887 15.5243257,21.1778898 15.120116,20.095225 C14.9127808,19.5399369 14.6269176,19.0088001 14.2744333,18.5321364 C13.9085476,18.0373472 13.4542517,17.6099021 13.1473223,17.0727396 C12.5013582,15.942447 12.2641833,14.5418136 12.1258313,13.2637687 C11.9829479,11.9433988 11.9214367,10.5575647 12.1177808,9.23960504 C12.295903,8.0429324 12.7359781,6.88945258 13.5507607,5.98004114 C14.3322326,5.10779675 15.3789355,4.5054111 16.4916328,4.16006132 C18.7947842,3.44535504 21.550014,3.99924518 23.31769,5.67393128 C25.2380353,7.4931398 25.3242281,10.219253 25.1407068,12.6890053 C25.0418358,14.0193539 24.8377304,15.4201802 24.2969041,16.650549 C24.172532,16.933568 24.0291183,17.2146107 23.8456452,17.4644156 C23.6650645,17.7102676 23.4422068,17.9216039 23.2512618,18.1591645 C22.870384,18.6330322 22.5265286,19.1433438 22.2666967,19.6941488 C21.9956328,20.2687676 21.8216082,20.8724548 21.7873335,21.5090187 C21.7700275,21.8309402 21.7926362,22.1525725 21.8408425,22.4709268 C21.8823481,22.7459436 22.0008873,22.9323573 22.2969221,22.9594492 C22.6209647,22.9891443 22.9621205,22.9620041 23.2875129,22.9620041 C23.6342607,22.9620041 23.9813941,22.9674515 24.3281418,22.9620041 C24.570523,22.9581476 24.8403335,22.872003 24.9137035,22.6046992 C24.9867842,22.3383595 24.7517786,22.0839268 24.7262293,21.8174907 C24.6734916,21.2668786 24.9729008,20.7172306 25.27419,20.2790355 C25.6225768,19.7722911 26.06969,19.3428696 26.4131598,18.8315938 C27.0812024,17.8007508 27.4693111,16.6188293 27.7163683,15.4226387 C27.9855521,14.1191891 28.1156609,12.7882138 28.1417405,11.458299 C28.1895611,9.01448173 27.7945107,6.5571667 26.2629008,4.57902209 Z M41.9690268,30.1055768 L35.4524057,30.1055768 L35.4524057,23.5876541 C35.4524057,23.0341497 35.011029,22.5966777 34.4666355,22.5966777 L33.7076759,22.5966777 C33.172779,22.5966777 32.7219057,23.0403683 32.7219057,23.5876541 L32.7219057,30.1055768 L26.2053811,30.1055768 C25.6518766,30.1055768 25.213103,30.5468571 25.213103,31.0912506 L25.213103,31.8502102 C25.213103,32.3851071 25.6573239,32.8360286 26.2053811,32.8360286 L32.7219057,32.8360286 L32.7219057,40.0365521 C32.7219057,40.5900566 33.1632824,41.0274804 33.7076759,41.0274804 L34.4666355,41.0274804 C35.0015324,41.0274804 35.4524057,40.583838 35.4524057,40.0365521 L35.4524057,32.8360286 L41.9690268,32.8360286 C42.5225313,32.8360286 42.9612084,32.3947001 42.9612084,31.8502102 L42.9612084,31.0912506 C42.9612084,30.5564983 42.5169876,30.1055768 41.9690268,30.1055768 Z" id="Combined-Shape" fill="#4A4A4A"></path>
        </g>
    </g>
</svg>