<?xml version="1.0" encoding="UTF-8"?>
<svg width="40px" height="40px" viewBox="0 0 40 40" version="1.1" xmlns="http://www.w3.org/2000/svg" xmlns:xlink="http://www.w3.org/1999/xlink">
    <!-- Generator: Sketch 40.3 (33839) - http://www.bohemiancoding.com/sketch -->
    <title>cannel</title>
    <desc>Created with Sketch.</desc>
    <defs>
        <rect id="path-1" x="0.0016" y="0.0254171429" width="39.9953829" height="39.9953829"></rect>
        <rect id="path-3" x="0.0016" y="0.0254171429" width="39.9953829" height="39.9953829"></rect>
    </defs>
    <g id="Page-1" stroke="none" stroke-width="1" fill="none" fill-rule="evenodd">
        <g id="cannel" transform="translate(-2.000000, -2.000000)">
            <g id="取消2" transform="translate(2.000000, 2.000000)">
                <g id="Group">
                    <g id="Clipped">
                        <mask id="mask-2" fill="white">
                            <use xlink:href="#path-1"></use>
                        </mask>
                        <g id="SVGID_1_"></g>
                        <path d="M27.7428571,25.9781029 L21.7832229,20.0185143 L27.7426743,14.0590629 C28.2339657,13.5677714 28.2339657,12.7712 27.7426743,12.2799086 C27.2513829,11.7886171 26.4548114,11.7886629 25.9635657,12.2799543 L20.0041143,18.23936 L14.0443429,12.2795429 C13.5530514,11.7882514 12.7565714,11.7882514 12.2654171,12.2794514 C11.7741257,12.7707429 11.7741257,13.5672229 12.2654171,14.0584686 L18.2250514,20.0181029 L12.2655086,25.9776914 C11.7743543,26.4688457 11.7745371,27.2654629 12.2657829,27.7567543 C12.7568914,28.2478629 13.5536457,28.2480457 14.0447086,27.7569371 L20.0042057,21.79744 L25.96384,27.7570743 C26.4551314,28.2483657 27.2516114,28.2483657 27.7429029,27.7570743 C28.2342857,27.2657829 28.2341486,26.4693943 27.7428571,25.9781029" id="Shape" fill="#4A4A4A" mask="url(#mask-2)"></path>
                    </g>
                    <g id="Clipped">
                        <mask id="mask-4" fill="white">
                            <use xlink:href="#path-3"></use>
                        </mask>
                        <g id="SVGID_1_"></g>
                        <path d="M20.0041143,37.30976 C10.4576457,37.30976 2.68996571,29.5506743 2.68996571,20.0184686 C2.68978286,10.4833371 10.4545829,2.72402286 20.0041143,2.72402286 C29.5477943,2.72402286 37.3154286,10.4832914 37.3154286,20.0184229 C37.3154743,29.5530971 29.5476114,37.30976 20.0041143,37.30976 L20.0041143,37.30976 Z M20.0041143,0.0644571429 C8.99808,0.0644571429 0.0504228571,9.01801143 0.0504228571,20.0184229 C0.0504228571,31.01856 8.99808,39.9721143 20.0041143,39.9721143 C31.0042971,39.9721143 39.9578514,31.01856 39.9578514,20.0184229 C39.9578971,9.01805714 31.0071771,0.0644571429 20.0041143,0.0644571429 L20.0041143,0.0644571429 Z" id="Shape" fill="#4A4A4A" mask="url(#mask-4)"></path>
                    </g>
                </g>
            </g>
        </g>
    </g>
</svg>