<?xml version="1.0" encoding="UTF-8"?>
<svg width="37px" height="38px" viewBox="0 0 37 38" version="1.1" xmlns="http://www.w3.org/2000/svg" xmlns:xlink="http://www.w3.org/1999/xlink">
    <!-- Generator: Sketch 40.3 (33839) - http://www.bohemiancoding.com/sketch -->
    <title>chats</title>
    <desc>Created with Sketch.</desc>
    <defs></defs>
    <g id="Page-1" stroke="none" stroke-width="1" fill="none" fill-rule="evenodd">
        <g id="chats" transform="translate(-4.000000, -3.000000)">
            <rect id="Rectangle-15" fill="#D8D8D8" opacity="0" x="0" y="0" width="44" height="44"></rect>
            <g id="发起群聊" transform="translate(4.000000, 3.000000)">
                <path d="M20,17 L20,10.9999602 C20,10.4547089 19.5527519,10 19.0010434,10 L17.9989566,10 C17.4426603,10 17,10.4476974 17,10.9999602 L17,17 L10.9999602,17 C10.4547089,17 10,17.4472481 10,17.9989566 L10,19.0010434 C10,19.5573397 10.4476974,20 10.9999602,20 L17,20 L17,26.0000398 C17,26.5452911 17.4472481,27 17.9989566,27 L19.0010434,27 C19.5573397,27 20,26.5523026 20,26.0000398 L20,20 L26.0000398,20 C26.5452911,20 27,19.5527519 27,19.0010434 L27,17.9989566 C27,17.4426603 26.5523026,17 26.0000398,17 L20,17 Z M2,27 C2.12712777,27.2542555 3,29 3,29 L3.02040816,38 L9.81632653,34.96 C12.7537985,35.9608195 15.5460485,36.6465318 18.877551,36.48 C28.7172679,36.6465318 37,28.4429262 37,18.24 C37,8.20360557 28.7172679,0 18.877551,0 C8.28273213,0 -1.59872116e-13,8.20360557 -1.59872116e-13,18.24 C-1.59872116e-13,21.3009087 1,25 2,27 Z M4.67567568,25.6216216 C4.78218813,25.8346465 5.51351351,27.2972973 5.51351351,27.2972973 L5.51351351,34 L11.2244898,32.2908108 C13.6856149,33.1293352 16.0250677,33.7038509 18.8163265,33.5643243 C27.0604136,33.7038509 34,26.8305598 34,18.2821622 C34,9.87329115 27.0604136,3 18.8163265,3 C9.93958638,3 3,9.87329115 3,18.2821622 C3,20.8467073 3.83783784,23.9459459 4.67567568,25.6216216 Z" id="Combined-Shape" fill="#4A4A4A"></path>
                <g id="Path-+-Path" transform="translate(10.000000, 10.000000)"></g>
            </g>
        </g>
    </g>
</svg>