<?xml version="1.0" encoding="UTF-8"?>
<svg width="40px" height="40px" viewBox="0 0 40 40" version="1.1" xmlns="http://www.w3.org/2000/svg" xmlns:xlink="http://www.w3.org/1999/xlink">
    <!-- Generator: Sketch 40.3 (33839) - http://www.bohemiancoding.com/sketch -->
    <title>checkbox</title>
    <desc>Created with Sketch.</desc>
    <defs>
        <rect id="path-1" x="0.0279314286" y="0.012187858" width="39.9472457" height="39.9798855"></rect>
        <rect id="path-3" x="0.0279314286" y="0.012187858" width="39.9472457" height="39.9798855"></rect>
    </defs>
    <g id="Page-1" stroke="none" stroke-width="1" fill="none" fill-rule="evenodd">
        <g id="checkbox" transform="translate(-2.000000, -2.000000)">
            <g transform="translate(2.000000, 2.000000)" id="Group">
                <g>
                    <g id="Clipped">
                        <mask id="mask-2" fill="white">
                            <use xlink:href="#path-1"></use>
                        </mask>
                        <g id="SVGID_1_"></g>
                        <path d="M20.0261486,3.27656357 C10.8375771,3.27656357 3.36054857,10.7707216 3.36054857,19.9803436 C3.36054857,29.1916151 10.8375771,36.6841237 20.0261486,36.6841237 C29.2163657,36.6841237 36.6917486,29.1916151 36.6917486,19.9803436 C36.6917029,10.7706758 29.2163657,3.27656357 20.0261486,3.27656357 L20.0261486,3.27656357 Z M20.0261486,39.9348912 C9.04973714,39.9348912 0.118857143,30.9835052 0.118857143,19.9803436 C0.118857143,8.97718213 9.04973714,0.0273997709 20.0261486,0.0273997709 C31.0026057,0.0273997709 39.93344,8.9787858 39.93344,19.9802978 C39.93344,30.9818099 31.00416,39.9348912 20.0261486,39.9348912 L20.0261486,39.9348912 Z" id="Shape" fill="#4A4A4A" mask="url(#mask-2)"></path>
                    </g>
                    <g id="Clipped">
                        <mask id="mask-4" fill="white">
                            <use xlink:href="#path-3"></use>
                        </mask>
                        <g id="SVGID_1_"></g>
                        <path d="M17.0389029,27.2144788 C16.6094171,27.2144788 16.1960686,27.0438946 15.8929829,26.7385109 L10.6738286,21.5074456 C10.0400914,20.8722566 10.0400914,19.8454983 10.6738286,19.2102635 C11.3075657,18.5750745 12.3319771,18.5750745 12.96576,19.2102635 L17.0389029,23.2927835 L27.0865829,13.2220848 C27.72032,12.5868958 28.7446857,12.5868958 29.3785143,13.2220848 C30.0122514,13.8572738 30.0122514,14.8840321 29.3785143,15.5192669 L18.1848686,26.7385109 C17.8801371,27.0438946 17.4684343,27.2144788 17.0389029,27.2144788" id="Shape" fill="#4A4A4A" mask="url(#mask-4)"></path>
                    </g>
                </g>
            </g>
        </g>
    </g>
</svg>