<?xml version="1.0" encoding="UTF-8"?>
<svg width="28px" height="16px" viewBox="0 0 28 16" version="1.1" xmlns="http://www.w3.org/2000/svg" xmlns:xlink="http://www.w3.org/1999/xlink">
    <!-- Generator: Sketch 40.3 (33839) - http://www.bohemiancoding.com/sketch -->
    <title>drop-down</title>
    <desc>Created with Sketch.</desc>
    <defs>
        <rect id="path-1" x="0.0725789474" y="0.056" width="27.9263158" height="15.9252336"></rect>
    </defs>
    <g id="Page-1" stroke="none" stroke-width="1" fill="none" fill-rule="evenodd">
        <g id="drop-down" transform="translate(-8.000000, -14.000000)">
            <rect id="Rectangle-3" fill="#D8D8D8" opacity="0" x="0" y="0" width="44" height="44"></rect>
            <g id="下拉" transform="translate(8.000000, 14.000000)">
                <g id="Clipped">
                    <mask id="mask-2" fill="white">
                        <use xlink:href="#path-1"></use>
                    </mask>
                    <g id="SVGID_1_"></g>
                    <path d="M14.6201263,11.2536822 C14.2651158,11.6139813 13.6732842,11.6139813 13.4366105,11.2536822 L3.02112632,0.685308411 C2.31103158,-0.0352149533 1.24577895,-0.155364486 0.535684211,0.445158879 C-0.0561473684,1.04560748 -0.0561473684,2.24657944 0.772357895,2.9671028 L12.8447789,15.336972 C13.5549474,16.0574953 14.6201263,16.0574953 15.3302947,15.336972 L27.2843789,3.08725234 C27.9944737,2.36665421 28.1128842,1.28583178 27.5210526,0.565233645 C26.9292947,-0.0352149533 25.7457053,-0.0352149533 25.0356105,0.805457944 L14.6201263,11.2536822" id="Shape" fill="#4A4A4A" mask="url(#mask-2)"></path>
                </g>
            </g>
        </g>
    </g>
</svg>