<?xml version="1.0" encoding="UTF-8"?>
<svg width="24px" height="28px" viewBox="0 0 24 28" version="1.1" xmlns="http://www.w3.org/2000/svg" xmlns:xlink="http://www.w3.org/1999/xlink">
    <!-- Generator: Sketch 40.3 (33839) - http://www.bohemiancoding.com/sketch -->
    <title>定位</title>
    <desc>Created with Sketch.</desc>
    <defs></defs>
    <g id="Page-1" stroke="none" stroke-width="1" fill="none" fill-rule="evenodd" opacity="0.792735541">
        <g id="定位" fill="#A4A9B0">
            <path d="M12.002001,15.9926919 C9.80090045,15.9926919 8.018009,14.213505 8.018009,11.994519 C8.018009,9.79552382 9.80090045,8.01633684 12.002001,8.01633684 C14.2031016,8.01633684 15.985993,9.79552382 15.985993,11.994519 C15.985993,14.213505 14.2031016,15.9926919 12.002001,15.9926919 L12.002001,15.9926919 Z M12,-5.15143483e-14 C5.37468734,-5.15143483e-14 0,4.73783499 0,10.5951584 C0,10.6951127 0.0580290145,13.4138704 1.09054527,15.3529843 C4.04602301,21.3702346 11.989995,28.0271926 12,28.0072018 C12.014007,28.0271926 19.921961,21.4102163 22.8914457,15.392966 C23.7738869,13.9736146 24,10.8150579 24,10.5951584 C24,4.73783499 18.6293147,-5.15143483e-14 12,-5.15143483e-14 L12,-5.15143483e-14 Z" id="Fill-33"></path>
        </g>
    </g>
</svg>