<?xml version="1.0" encoding="UTF-8"?>
<svg width="30px" height="42px" viewBox="0 0 30 42" version="1.1" xmlns="http://www.w3.org/2000/svg" xmlns:xlink="http://www.w3.org/1999/xlink">
    <!-- Generator: Sketch 40.3 (33839) - http://www.bohemiancoding.com/sketch -->
    <title>map</title>
    <desc>Created with Sketch.</desc>
    <defs>
        <rect id="path-1" x="0.00813397129" y="0.0408013699" width="29.9536364" height="41.9278425"></rect>
        <rect id="path-3" x="0.00813397129" y="0.0408013699" width="29.9536364" height="41.9278425"></rect>
    </defs>
    <g id="Page-1" stroke="none" stroke-width="1" fill="none" fill-rule="evenodd">
        <g id="map" transform="translate(-7.000000, -1.000000)">
            <rect id="Rectangle-138" fill="#D8D8D8" opacity="0" x="0" y="0" width="44" height="44"></rect>
            <g id="地图" transform="translate(7.000000, 1.000000)">
                <g id="Group">
                    <g id="Clipped">
                        <mask id="mask-2" fill="white">
                            <use xlink:href="#path-1"></use>
                        </mask>
                        <g id="SVGID_1_"></g>
                        <path d="M15.0067464,0.042 C6.78478469,0.042 0.0977511962,6.66011644 0.0977511962,14.9827329 C0.0977511962,23.6980685 7.55296651,34.6077603 12.9880383,40.8720411 C13.0083732,40.8964932 13.8808134,41.8738082 14.9593301,41.8738082 L15.0539713,41.8738082 C16.1325359,41.8738082 17.004689,40.8963493 17.0255024,40.8720411 C22.4617225,34.6076644 29.9155024,23.6977808 29.9155024,14.9827329 C29.9155024,6.66011644 23.2284211,0.042 15.0067464,0.042 L15.0067464,0.042 Z M15.0067464,3.02975342 C16.6200957,3.02975342 18.1823445,3.34297945 19.6500957,3.96080137 C21.0705742,4.55863014 22.3455981,5.41560274 23.4398086,6.5079863 C25.6929187,8.75723973 26.9337321,11.7669521 26.9337321,14.9826849 C26.9337321,16.7167192 26.5652153,18.6993014 25.8383254,20.8752945 C25.1609091,22.9033767 24.1725837,25.0981164 22.9007656,27.3985753 C20.1686124,32.3407671 16.8704306,36.471726 15.0066986,38.6434521 C13.1427751,36.4709589 9.84440191,32.3392329 7.11287081,27.3985753 C5.84095694,25.0980205 4.85253589,22.9033288 4.17497608,20.8752945 C3.44803828,18.6993014 3.07947368,16.7167192 3.07947368,14.9826849 C3.07947368,11.7670479 4.32033493,8.75728767 6.57344498,6.50808219 C7.66770335,5.41569863 8.94277512,4.55867808 10.3633014,3.96080137 C11.8310048,3.3430274 13.3932536,3.02975342 15.0067464,3.02975342 L15.0067464,3.02975342 Z" id="Shape" fill="#4A4A4A" mask="url(#mask-2)"></path>
                    </g>
                    <g id="Clipped">
                        <mask id="mask-4" fill="white">
                            <use xlink:href="#path-3"></use>
                        </mask>
                        <g id="SVGID_1_"></g>
                        <path d="M15.0062201,9.00593151 C11.7125359,9.00593151 9.04248804,11.6814658 9.04248804,14.9819178 C9.04248804,18.2823699 11.7125359,20.9579041 15.0062201,20.9579041 C18.2999043,20.9579041 20.9699522,18.2823699 20.9699522,14.9819178 C20.9699522,11.6814658 18.2999043,9.00593151 15.0062201,9.00593151 L15.0062201,9.00593151 Z M15.0062201,11.9937329 C16.6505263,11.9937329 17.9882775,13.3342329 17.9882775,14.9819178 C17.9882775,16.6296507 16.6505263,17.9701027 15.0062201,17.9701027 C13.3619139,17.9701027 12.0241627,16.6296507 12.0241627,14.9819178 C12.0241627,13.3342808 13.3619139,11.9937329 15.0062201,11.9937329 L15.0062201,11.9937329 Z" id="Shape" fill="#4A4A4A" mask="url(#mask-4)"></path>
                    </g>
                </g>
            </g>
        </g>
    </g>
</svg>