<?xml version="1.0" encoding="UTF-8"?>
<svg width="40px" height="33px" viewBox="0 0 40 33" version="1.1" xmlns="http://www.w3.org/2000/svg" xmlns:xlink="http://www.w3.org/1999/xlink">
    <!-- Generator: Sketch 40.3 (33839) - http://www.bohemiancoding.com/sketch -->
    <title>category</title>
    <desc>Created with Sketch.</desc>
    <defs>
        <rect id="path-1" x="0.0235347777" y="0.00546986301" width="39.9515165" height="32.9896027"></rect>
    </defs>
    <g id="Page-1" stroke="none" stroke-width="1" fill="none" fill-rule="evenodd">
        <g id="category" transform="translate(-2.000000, -5.000000)">
            <rect id="Rectangle-61" fill="#D8D8D8" opacity="0" x="0" y="0" width="44" height="44"></rect>
            <g id="Clipped" transform="translate(2.000000, 5.000000)">
                <mask id="mask-2" fill="white">
                    <use xlink:href="#path-1"></use>
                </mask>
                <g id="SVGID_1_"></g>
                <path d="M4.52387685,29.645889 L1.20415051,29.645889 C0.592976055,29.645889 0.0975598632,30.136911 0.0975598632,30.7428 L0.0975598632,31.8395753 C0.0975598632,32.4451027 0.592930445,32.9362603 1.20415051,32.9362603 L4.52387685,32.9362603 C5.13505131,32.9362603 5.6304675,32.4451479 5.6304675,31.8395753 L5.6304675,30.7428 C5.63042189,30.136911 5.13505131,29.645889 4.52387685,29.645889 L4.52387685,29.645889 Z M4.52387685,14.2911699 L1.20415051,14.2911699 C0.592976055,14.2911699 0.0975598632,14.7822822 0.0975598632,15.3878096 L0.0975598632,16.4844945 C0.0975598632,17.0904288 0.592930445,17.5814507 1.20415051,17.5814507 L4.52387685,17.5814507 C5.13505131,17.5814507 5.6304675,17.0904288 5.6304675,16.4844945 L5.6304675,15.3878096 C5.63042189,14.7822822 5.13505131,14.2911699 4.52387685,14.2911699 L4.52387685,14.2911699 Z M4.52387685,0.0331808219 L1.20415051,0.0331808219 C0.592976055,0.0331808219 0.0975598632,0.52420274 0.0975598632,1.13018219 L0.0975598632,2.22677671 C0.0975598632,2.83266575 0.592930445,3.32341644 1.20415051,3.32341644 L4.52387685,3.32341644 C5.13505131,3.32341644 5.6304675,2.83262055 5.6304675,2.22677671 L5.6304675,1.13018219 C5.63042189,0.524247945 5.13505131,0.0331808219 4.52387685,0.0331808219 L4.52387685,0.0331808219 Z M38.8278677,29.645889 L11.1633751,29.645889 C10.5522463,29.645889 10.0567845,30.136911 10.0567845,30.7428 L10.0567845,31.8395753 C10.0567845,32.4451027 10.5522007,32.9362603 11.1633751,32.9362603 L38.8278677,32.9362603 C39.4390422,32.9362603 39.934504,32.4451479 39.934504,31.8395753 L39.934504,30.7428 C39.934504,30.136911 39.4390422,29.645889 38.8278677,29.645889 L38.8278677,29.645889 Z M38.8278677,14.2911699 L11.1633751,14.2911699 C10.5522463,14.2911699 10.0567845,14.7822822 10.0567845,15.3878096 L10.0567845,16.4844945 C10.0567845,17.0904288 10.5522007,17.5814507 11.1633751,17.5814507 L38.8278677,17.5814507 C39.4390422,17.5814507 39.934504,17.0904288 39.934504,16.4844945 L39.934504,15.3878096 C39.934504,14.7822822 39.4390422,14.2911699 38.8278677,14.2911699 L38.8278677,14.2911699 Z M38.8278677,0.0331808219 L11.1633751,0.0331808219 C10.5522463,0.0331808219 10.0567845,0.52420274 10.0567845,1.13018219 L10.0567845,2.22677671 C10.0567845,2.83266575 10.5522007,3.32341644 11.1633751,3.32341644 L38.8278677,3.32341644 C39.4390422,3.32341644 39.934504,2.83262055 39.934504,2.22677671 L39.934504,1.13018219 C39.934504,0.524247945 39.4390422,0.0331808219 38.8278677,0.0331808219 L38.8278677,0.0331808219 Z" id="Shape" fill="#4A4A4A" mask="url(#mask-2)"></path>
            </g>
        </g>
    </g>
</svg>