<?xml version="1.0" encoding="UTF-8"?>
<svg width="40px" height="39px" viewBox="0 0 40 39" version="1.1" xmlns="http://www.w3.org/2000/svg" xmlns:xlink="http://www.w3.org/1999/xlink">
    <!-- Generator: Sketch 40.3 (33839) - http://www.bohemiancoding.com/sketch -->
    <title>delete</title>
    <desc>Created with Sketch.</desc>
    <defs></defs>
    <g id="Page-1" stroke="none" stroke-width="1" fill="none" fill-rule="evenodd">
        <g id="delete" transform="translate(-3.000000, -3.000000)" fill="#4A4A4A">
            <path d="M36.2222222,12 L10.2222222,12 L10.2222222,42 C8.57222222,42 7.22222222,41.0035714 7.22222222,40 L7.22222222,12 L4.72717167,12 C3.89601104,12 3.22222222,11.3342028 3.22222222,10.5 C3.22222222,9.67157288 3.89914025,9 4.72717167,9 L14.2222222,9 L14.2222222,6 L17.2222222,6 L17.2222222,9 L29.2222222,9 L29.2222222,6 L32.2222222,6 L32.2222222,9 L40.7172728,9 C41.5484334,9 42.2222222,9.66579723 42.2222222,10.5 C42.2222222,11.3284271 41.5453042,12 40.7172728,12 L39.2222222,12 L39.2222222,40 C39.2222222,41.0035714 37.8722222,42 36.2222222,42 L36.2222222,12 Z M29.2222222,17.5037099 C29.2222222,16.6732339 29.8880195,16 30.7222222,16 C31.5506493,16 32.2222222,16.661977 32.2222222,17.5037099 L32.2222222,32.4962901 C32.2222222,33.3267661 31.556425,34 30.7222222,34 C29.8937951,34 29.2222222,33.338023 29.2222222,32.4962901 L29.2222222,17.5037099 Z M14.2222222,17.5037099 C14.2222222,16.6732339 14.8880195,16 15.7222222,16 C16.5506493,16 17.2222222,16.661977 17.2222222,17.5037099 L17.2222222,32.4962901 C17.2222222,33.3267661 16.556425,34 15.7222222,34 C14.8937951,34 14.2222222,33.338023 14.2222222,32.4962901 L14.2222222,17.5037099 Z M21.2222222,17.5037099 C21.2222222,16.6732339 21.8880195,16 22.7222222,16 C23.5506493,16 24.2222222,16.661977 24.2222222,17.5037099 L24.2222222,32.4962901 C24.2222222,33.3267661 23.556425,34 22.7222222,34 C21.8937951,34 21.2222222,33.338023 21.2222222,32.4962901 L21.2222222,17.5037099 Z M10.2222222,39 L36.2222222,39 L36.2222222,42 L10.2222222,42 L10.2222222,39 Z M32.2222222,6 L14.2222222,6 C14.2222222,4.35 15.2347222,3 16.3398693,3 L30.1045752,3 C31.2097222,3 32.2222222,4.35 32.2222222,6 Z" id="Fill-1"></path>
        </g>
    </g>
</svg>