<?xml version="1.0" encoding="UTF-8"?>
<svg width="44px" height="41px" viewBox="0 0 44 41" version="1.1" xmlns="http://www.w3.org/2000/svg" xmlns:xlink="http://www.w3.org/1999/xlink">
    <!-- Generator: Sketch 40.3 (33839) - http://www.bohemiancoding.com/sketch -->
    <title>details</title>
    <desc>Created with Sketch.</desc>
    <defs>
        <rect id="path-1" x="0" y="0" width="44" height="41"></rect>
        <rect id="path-3" x="0" y="0" width="44" height="41"></rect>
        <rect id="path-5" x="0" y="0" width="44" height="41"></rect>
    </defs>
    <g id="Page-1" stroke="none" stroke-width="1" fill="none" fill-rule="evenodd">
        <g id="details">
            <g id="用户设置">
                <g id="Group">
                    <g id="Clipped">
                        <mask id="mask-2" fill="white">
                            <use xlink:href="#path-1"></use>
                        </mask>
                        <g id="SVGID_1_"></g>
                        <path d="M26.8148399,18.0988548 C27.6578222,16.8173343 28.046539,15.2677507 28.2831518,13.7701686 C28.4876826,12.4755425 28.5590096,11.1678109 28.5448044,9.85851613 C28.5300575,8.50677859 28.3289576,7.14415982 27.8294282,5.88247801 C26.8856854,3.49918768 24.9167606,1.77502346 22.5148782,0.930796188 C21.3354254,0.516227273 20.1045691,0.314293255 18.8566183,0.326857771 C17.3192668,0.342307918 15.7122736,0.814529326 14.3589877,1.52583724 C12.2087059,2.65604252 10.6728591,4.56290323 10.0288098,6.90284897 C9.70148837,8.09184897 9.63238851,9.30411437 9.63208755,10.5307478 C9.6317264,12.0918739 9.80248974,13.6713358 10.1634583,15.1905 C10.477658,16.5130205 10.9062216,17.9484413 11.8979371,18.9337639 C12.6270369,19.6580572 13.4500958,20.7582639 13.0207497,21.8429604 C12.9028947,22.1407815 12.6819918,22.3743974 12.4364104,22.5738065 C12.0096525,22.9203226 11.5224022,23.1905499 11.0397866,23.4501364 C9.56882627,24.2412199 8.05013406,24.9393021 6.58513269,25.74289 C5.46918194,26.3549443 4.36117647,27.0019267 3.34375923,27.7694443 C2.61772914,28.3171129 1.91673871,28.9402287 1.40649521,29.69939 C0.989187415,30.3202815 0.716760602,31.0215499 0.651512996,31.769349 C0.59776197,32.3855513 0.575611491,33.0079457 0.532514364,33.6253504 C0.486949384,34.2779238 0.397865937,34.9428211 0.397083447,35.5974384 C0.396421341,36.2122581 0.886139535,36.7135762 1.4981067,36.7451979 C2.09881806,36.7762185 2.67497127,36.3736129 2.79493297,35.7737625 C2.83917373,35.5528314 2.83568263,35.3160293 2.85109166,35.0922727 C2.88100684,34.6606906 2.91080164,34.2291686 2.94065663,33.7976466 C2.98182763,33.2017038 2.9969959,32.5972845 3.06200274,32.003566 C3.13260739,31.3591686 3.54985499,30.8132434 3.98973461,30.3640469 C4.71588509,29.6225 5.6099699,29.0372581 6.49123393,28.4984267 C7.82261012,27.6843783 9.21339535,26.9672991 10.6103201,26.2734252 C11.8316662,25.6667815 13.1150698,25.0585147 14.1525308,24.156695 C14.8064514,23.588346 15.2940629,22.8914062 15.465067,22.0326906 C15.7386375,20.6585894 15.2836498,19.3629413 14.5066375,18.230632 C14.1347141,17.6886745 13.6347633,17.241522 13.299015,16.677261 C12.9098167,16.023305 12.6798851,15.2761672 12.5053297,14.5399707 C12.1659699,13.1086378 12.050643,11.6485088 12.0508235,10.181346 C12.0508837,8.91365249 12.192394,7.63724194 12.7111245,6.46753959 C13.1756826,5.42023607 13.9265718,4.5451085 14.8810287,3.91231378 C16.0376088,3.1455176 17.5218714,2.6587478 18.9156662,2.65550147 C20.3053078,2.65225513 21.7147524,3.01572434 22.918643,3.71518915 C23.9019316,4.28642375 24.7187305,5.0916349 25.2599124,6.09457185 C25.8962572,7.2740132 26.1178222,8.64138123 26.1268509,9.96792962 C26.1357592,11.2797493 26.0635294,12.5836334 25.8238468,13.8760352 C25.6731874,14.6882199 25.4699207,15.5009457 25.1244815,16.254456 C24.9932038,16.5407947 24.8415212,16.819739 24.6495705,17.0704282 C24.462435,17.3147449 24.2387633,17.5289428 24.0471737,17.7703739 C23.5567332,18.3882595 23.1202244,19.0796085 22.8616416,19.8280689 C22.6109439,20.5537449 22.5711573,21.3126056 22.7116443,22.0659355 C22.7276553,22.151783 22.8389494,22.1695777 22.9080492,22.1695777 L24.9388509,22.1695777 C24.9786375,22.179437 25.0243228,22.177393 25.0687442,22.1660308 C25.1169576,22.1580953 25.1563228,22.136934 25.1860575,22.1095806 C25.2490178,22.060585 25.2822435,21.9894663 25.2385445,21.9131173 C24.823223,21.1875015 25.1488591,20.3661789 25.555814,19.7203988 C25.9238249,19.1359384 26.4365964,18.6738167 26.8148399,18.0988548" id="Shape" fill="#4A4A4A" mask="url(#mask-2)"></path>
                    </g>
                    <g id="Clipped">
                        <mask id="mask-4" fill="white">
                            <use xlink:href="#path-3"></use>
                        </mask>
                        <g id="SVGID_1_"></g>
                        <path d="M28.2473379,10.624651 C28.2258495,11.9625616 28.1030588,13.2992698 27.831896,14.6106686 C27.5889029,15.786022 27.2167387,16.9367273 26.5595075,17.949824 C25.8975212,18.9340044 24.8934063,19.7238255 24.7610451,20.982261 C24.732093,21.2575381 24.763513,21.5427947 24.8626484,21.8017801 C24.865658,21.8096554 24.8770944,21.8395938 24.8903967,21.8731393 C24.8743256,21.8731393 24.8582544,21.8727185 24.8420027,21.8741012 C24.6489083,21.8689311 24.4549713,21.8741012 24.2618167,21.8741012 L23.2947196,21.8741012 C23.1910698,21.8741012 23.0537127,21.8973666 22.9429001,21.8827581 C23.0251218,21.8885293 22.9646293,21.8026217 22.9537346,21.7039091 C22.943803,21.6137331 22.9368208,21.5230762 22.9322462,21.4325396 C22.8676005,20.1435044 23.4666265,18.9630411 24.2560985,17.9790411 C24.6427688,17.4970806 25.0515294,17.0843152 25.3245581,16.5199941 C25.6087825,15.9326481 25.8095212,15.3091114 25.9586758,14.6749941 C26.2693844,13.3540367 26.3975321,11.9938827 26.4193817,10.6390191 C26.4398468,9.37342962 26.3641259,8.09323167 25.932974,6.89124633 C25.1140684,4.60805132 23.1028892,3.08540029 20.7678194,2.56484457 C18.4305828,2.04380792 15.8827962,2.59472287 14.0535157,4.17165982 C13.1863365,4.91921848 12.5576361,5.8994912 12.196788,6.98220381 C11.7828509,8.22440762 11.7302435,9.55251906 11.7632886,10.8505117 C11.7977182,12.2032111 11.9463912,13.5607801 12.2828016,14.8735015 C12.4382763,15.4802053 12.6389549,16.0814384 12.935699,16.6349985 C13.2281094,17.1804428 13.6550479,17.6186979 14.0396717,18.0971716 C14.7727442,19.0092111 15.2888263,20.1814384 15.2466922,21.3662302 C15.2036553,22.5763915 14.5393215,23.5090513 13.6031026,24.2266114 C12.6184295,24.9814443 11.4826156,25.5100557 10.377078,26.0600088 C9.18913817,26.651022 8.00842134,27.2588079 6.86393981,27.9306789 C5.78747469,28.5625718 4.69445691,29.2328798 3.81090561,30.1244194 C3.41075239,30.5281672 3.04412585,30.9892067 2.86306977,31.5350117 C2.66798906,32.1227185 2.70271956,32.808176 2.66810944,33.4201701 C2.63012859,34.0916804 2.58053078,34.7627698 2.53803557,35.4339795 C2.50583311,35.9420909 2.2319617,36.3698856 1.69336799,36.4447317 C1.22880985,36.5092977 0.766960328,36.1905557 0.699485636,35.7191158 C0.659458276,35.4390894 0.704,35.1272009 0.724705882,34.8460323 C0.750046512,34.5010191 0.786402189,34.1569076 0.813969904,33.8120748 C0.914730506,32.5497317 0.829559508,31.2631012 1.48594802,30.1295293 C2.11248153,29.0476584 3.14157592,28.2423871 4.15857182,27.5468299 C6.37054993,26.0337977 8.83659644,24.9703226 11.188881,23.7050938 C12.1831847,23.1702903 13.4323995,22.5150117 13.4346265,21.224173 C13.4355294,20.6727771 13.208788,20.1401979 12.9089138,19.6867933 C12.5957373,19.2133094 12.178249,18.8453314 11.8210725,18.4103827 C11.120985,17.5578592 10.7833105,16.4598768 10.5203338,15.4075235 C10.1975869,14.1160235 10.0066594,12.7989736 9.94815321,11.4690587 C9.84065116,9.02607185 10.0660082,6.53481085 11.4753324,4.46190616 C12.7481423,2.58979326 14.7758741,1.38101466 16.9578167,0.863164223 C19.3146758,0.303832845 21.9244596,0.72886217 24.0144295,1.94407331 C25.8586375,3.01638563 27.224383,4.72275513 27.8216635,6.77251466 C28.1876279,8.0283651 28.2682244,9.32329179 28.2473379,10.624651 L28.2473379,10.624651 Z M26.9165034,3.69727419 C25.559606,1.94677859 23.5605253,0.793007331 21.4128317,0.305876833 C18.874736,-0.269806452 16.2473762,0.119032258 13.97942,1.39634457 C12.0821833,2.46480938 10.6362025,4.2011173 9.92100684,6.25448387 C9.48522025,7.50570528 9.35665116,8.83628152 9.33883447,10.1538724 C9.32023529,11.5292962 9.42316279,12.904239 9.66748016,14.2585015 C9.87809029,15.4256789 10.1624952,16.6194883 10.6806238,17.6924619 C10.9262654,18.2013548 11.2414884,18.6794076 11.6343584,19.0873035 C12.0370999,19.5055396 12.4361696,19.9348372 12.6721806,20.4741496 C12.9063858,21.0093739 12.924985,21.6390425 12.5157428,22.0957537 C12.1013844,22.5580557 11.5056689,22.8626701 10.9667141,23.1540587 C9.74922025,23.8121628 8.49759781,24.4041378 7.27011218,25.0429443 C6.07657456,25.6641364 4.89272777,26.3226613 3.78508345,27.0884355 C2.75412312,27.8011261 1.73195075,28.6138519 1.06081532,29.6895909 C0.743786594,30.1976422 0.509160055,30.7701994 0.408760602,31.3616334 C0.298008208,32.0143871 0.29572093,32.6874604 0.254971272,33.3471276 C0.212415869,34.0350499 0.120623803,34.7207478 0.103890561,35.4101129 C0.0909493844,35.9408284 0.247146375,36.42339 0.686604651,36.7516305 C1.53879617,37.3881525 2.85819425,36.8936877 3.07993981,35.8521554 C3.13934884,35.5732713 3.13423256,35.2828446 3.1530725,34.9996921 C3.17781122,34.6297302 3.20441587,34.2598886 3.22981669,33.8899868 C3.25136525,33.5758138 3.26755677,33.2614003 3.28531327,32.9469868 C3.30571819,32.5855616 3.30288919,32.1982859 3.38908345,31.8448563 C3.53119562,31.2623798 3.96048153,30.7932243 4.38356772,30.3905587 C4.84951026,29.9470733 5.36962517,29.5676129 5.90683447,29.2154457 C7.03596717,28.4751012 8.22276334,27.8230689 9.42195896,27.2039809 C10.5797428,26.6062346 11.7786977,26.0743167 12.8989822,25.4070748 C13.9005089,24.8105308 14.9285198,24.0634531 15.4492367,22.987654 C15.9697127,21.9122757 15.9397373,20.6433196 15.5265226,19.5379428 C15.3145882,18.9710367 15.0224186,18.4288387 14.662052,17.9421891 C14.2880821,17.4371437 13.8237647,17.0006921 13.5099261,16.4523021 C12.8496854,15.2983504 12.6072339,13.8684003 12.465844,12.5636144 C12.3197592,11.2156642 12.2569795,9.80080352 12.4575978,8.45525806 C12.6397373,7.23349413 13.0895486,6.05591642 13.9223584,5.12752493 C14.7212202,4.23706745 15.7911847,3.62200733 16.9285034,3.26947947 C19.2827743,2.53977566 22.0990752,3.10535924 23.9059644,4.81503519 C25.86887,6.67229912 25.9569302,9.45548974 25.7693735,11.9768094 C25.6683119,13.3350396 25.4596279,14.7652302 24.9069494,16.0213211 C24.7798249,16.3102449 24.6331382,16.5971848 24.4455814,16.8522023 C24.2610944,17.1030718 24.0332093,17.3189531 23.8380684,17.5614062 C23.4486895,18.0451701 23.0972914,18.5662067 22.8316662,19.1284839 C22.5545445,19.7151686 22.3767387,20.3315513 22.3416471,20.9814194 C22.3238906,21.3099604 22.3470643,21.6383211 22.396301,21.9633754 C22.4387962,22.2441232 22.5599617,22.4344545 22.8626047,22.4621686 C23.1938386,22.4924076 23.5424679,22.4646935 23.875026,22.4646935 C24.2294938,22.4646935 24.5844432,22.4702845 24.9387907,22.4646935 C25.186539,22.4607859 25.4623967,22.3728944 25.5373352,22.0999619 C25.6120328,21.8280513 25.3718687,21.5683446 25.3458057,21.2963138 C25.2918741,20.7341569 25.597948,20.1729619 25.905948,19.7255689 C26.262041,19.2083196 26.719015,18.7698842 27.0701724,18.2478856 C27.752985,17.195412 28.1497073,15.9888578 28.4022107,14.7676349 C28.6774063,13.4368783 28.8103694,12.078107 28.8370342,10.7203578 C28.8858495,8.22548974 28.4820246,5.71679472 26.9165034,3.69727419 L26.9165034,3.69727419 Z" id="Shape" fill="#4A4A4A" mask="url(#mask-4)"></path>
                    </g>
                    <g id="Clipped">
                        <mask id="mask-6" fill="white">
                            <use xlink:href="#path-5"></use>
                        </mask>
                        <g id="SVGID_1_"></g>
                        <g id="Group" mask="url(#mask-6)">
                            <g transform="translate(24.497948, 21.942815)">
                                <g transform="translate(6.079343, 5.831378)">
                                    <path d="M3.70400547,0.0700366569 C1.70143365,0.0700366569 0.0719890561,1.6969912 0.0719890561,3.69709384 C0.0719890561,5.69767742 1.70143365,7.32559384 3.70400547,7.32559384 C5.70657729,7.32559384 7.33602189,5.69815836 7.33602189,3.69709384 C7.33602189,1.6969912 5.70657729,0.0700366569 3.70400547,0.0700366569 L3.70400547,0.0700366569 Z M3.70400547,6.22009677 C2.31430369,6.22009677 1.18414774,5.09043255 1.18414774,3.70190323 C1.18414774,2.31391496 2.31478523,1.18515249 3.70400547,1.18515249 C5.09364706,1.18515249 6.22428454,2.31391496 6.22434473,3.70190323 C6.22434473,5.09043255 5.09370725,6.22009677 3.70400547,6.22009677 L3.70400547,6.22009677 Z" id="Shape" fill="#4A4A4A"></path>
                                    <path d="M3.70400547,7.38571114 C1.66814774,7.38571114 0.0117975376,5.73104252 0.0117975376,3.69709384 C0.0117975376,1.6639868 1.66814774,0.00991935484 3.70400547,0.00991935484 C5.7398632,0.00991935484 7.39621341,1.6639868 7.39621341,3.69709384 C7.39621341,5.73104252 5.7398632,7.38571114 3.70400547,7.38571114 L3.70400547,7.38571114 Z M3.70400547,0.130153959 C1.7344788,0.130153959 0.132180575,1.73023607 0.132180575,3.69709384 C0.132180575,5.66467302 1.7344788,7.26547654 3.70400547,7.26547654 C5.67353215,7.26547654 7.27583037,5.66467302 7.27583037,3.69709384 C7.27583037,1.73023607 5.67353215,0.130153959 3.70400547,0.130153959 L3.70400547,0.130153959 Z M3.70400547,6.28021408 C2.28131874,6.28021408 1.12395622,5.1236173 1.12395622,3.70190323 C1.12395622,2.28097067 2.28137893,1.12503519 3.70400547,1.12503519 C5.12687278,1.12503519 6.28447606,2.28103079 6.28453625,3.70190323 C6.28453625,5.1236173 5.12693297,6.28021408 3.70400547,6.28021408 L3.70400547,6.28021408 Z M3.70400547,1.24526979 C2.34777018,1.24526979 1.24433926,2.34734018 1.24433926,3.70190323 C1.24433926,5.05730792 2.34777018,6.15997947 3.70400547,6.15997947 C5.06054172,6.15997947 6.16415321,5.05730792 6.16415321,3.70190323 C6.16409302,2.34734018 5.06048153,1.24526979 3.70400547,1.24526979 L3.70400547,1.24526979 Z" id="Shape" fill="#000000"></path>
                                </g>
                                <g>
                                    <path d="M17.3898714,10.6586173 L19.4729795,9.35593548 L18.5816033,5.45119648 L16.1359617,5.17880499 L15.4246183,4.28708504 L15.7050506,1.84836657 L12.091513,0.110435484 L10.3548673,1.8498695 L9.21357592,1.8498695 L7.4778933,0.110435484 L3.86435568,1.84836657 L4.14478796,4.28804692 L3.43392613,5.17874487 L0.988826265,5.45113636 L0.0969685363,9.35587537 L2.18109986,10.6586173 L2.43534884,11.7693446 L1.12323393,13.8465777 L3.62515458,16.9788094 L5.94457456,16.1636188 L6.97282627,16.6579633 L7.78023529,18.9774692 L11.7912175,18.9774692 L12.5991683,16.6580235 L13.6268782,16.1636789 L15.9463584,16.9788695 L18.4482189,13.8466378 L17.136104,11.7694047 L17.3898714,10.6586173 L17.3898714,10.6586173 Z M15.5353707,15.5525264 L13.5536854,14.8560674 L11.618528,15.7875249 L10.9280109,17.7677889 L8.64109439,17.7677889 L7.95111902,15.7875249 L6.01602189,14.8560674 L4.03427633,15.5525264 L2.60719562,13.7651789 L3.72814227,11.9913578 L3.24974008,9.90065836 L1.46981669,8.78746628 L1.97837483,6.55951906 L4.06732148,6.32740616 L5.40555951,4.65151613 L5.16683995,2.56809091 L7.2280985,1.57603519 L8.71145828,3.06147361 L10.8591518,3.06147361 L12.3425116,1.57603519 L14.4043119,2.56809091 L14.1645691,4.65151613 L15.5038304,6.32692522 L17.592777,6.55903812 L18.101275,8.78644428 L16.3209904,9.90065836 L15.8434911,11.9913578 L16.9624514,13.7651789 L15.5353707,15.5525264 L15.5353707,15.5525264 Z" id="Shape" fill="#4A4A4A"></path>
                                    <path d="M11.8339535,19.0375865 L7.73737893,19.0375865 L6.92413133,16.7013079 L5.94090287,16.2286657 L3.60468947,17.0497478 L3.57808482,17.0163226 L1.04943912,13.8506657 L2.3710643,11.7584032 L2.12795075,10.696371 L0.0287715458,9.38419062 L0.939589603,5.39612903 L3.40238577,5.12175367 L4.08212859,4.27013196 L3.79970999,1.81277713 L7.49035294,0.037813783 L9.2385554,1.78987243 L10.3298878,1.78987243 L12.0791135,0.037813783 L15.7696963,1.81277713 L15.4872777,4.26917009 L16.1675021,5.12181378 L18.6308399,5.39618915 L18.64029,5.43779032 L19.5411765,9.38425073 L17.4430807,10.6963109 L17.2004487,11.7584633 L18.5220739,13.8507258 L15.9668235,17.0497478 L13.6305499,16.2287258 L12.6479234,16.701368 L11.8339535,19.0375865 L11.8339535,19.0375865 Z M7.82303146,18.9173519 L11.7484213,18.9173519 L12.5505937,16.6146789 L13.6232668,16.0986921 L15.9259535,16.9079311 L18.3744843,13.84261 L17.0718796,11.7804062 L17.3367223,10.6209238 L19.4047223,9.32762023 L18.5323666,5.50620381 L16.1044213,5.23579619 L15.3618988,4.30512023 L15.6403447,1.88407625 L12.1038523,0.183177419 L10.3797866,1.91010704 L9.18853625,1.91010704 L7.46537346,0.183177419 L3.92894118,1.88407625 L4.20738714,4.30608211 L3.4653461,5.23579619 L1.03794254,5.50620381 L0.165105335,9.32762023 L2.23418878,10.6209238 L2.499513,11.7804062 L1.19690834,13.84261 L3.64543912,16.9079311 L5.94806566,16.0986921 L7.02134063,16.6146789 L7.82303146,18.9173519 L7.82303146,18.9173519 Z M10.9708071,17.8279062 L8.59829822,17.8279062 L7.90248427,15.8308695 L6.01247059,14.9210543 L4.0139316,15.6234648 L2.53346101,13.7692067 L3.66385773,11.9803563 L3.19659097,9.93835191 L1.4016197,8.81572141 L1.92919836,6.50451173 L4.03584131,6.27035484 L5.34290014,4.63348094 L5.10219425,2.53238123 L7.24049795,1.50329326 L8.73643776,3.00129619 L10.8342326,3.00129619 L12.3301724,1.50329326 L14.4690178,2.53238123 L14.2272886,4.63348094 L15.5353105,6.2698739 L17.6420137,6.50397067 L18.1695321,8.81469941 L16.3741997,9.93835191 L15.9077756,11.9804164 L17.036186,13.7692669 L15.5557756,15.6234648 L13.5572969,14.9210543 L11.667223,15.8308695 L10.9708071,17.8279062 L10.9708071,17.8279062 Z M8.68389056,17.7076716 L10.8852148,17.7076716 L11.5699535,15.7442405 L13.5500739,14.7911408 L15.5149658,15.4816481 L16.8887168,13.7610909 L15.7792066,12.0022991 L16.2678413,9.86302493 L18.033078,8.75824927 L17.5435404,6.61404545 L15.4723502,6.38397654 L14.1018495,4.6694912 L14.3395458,2.60374047 L12.3547907,1.64871701 L10.8840109,3.12159091 L8.68629822,3.12159091 L7.21551847,1.64871701 L5.23130506,2.60374047 L5.4680383,4.6694912 L4.09868126,6.38439736 L2.02743092,6.61452639 L1.53783311,8.75915103 L3.30270862,9.86296481 L3.79218605,12.0022991 L2.68080985,13.7610909 L4.05450068,15.481588 L6.0194528,14.7910806 L7.999513,15.7441804 L8.68389056,17.7076716 L8.68389056,17.7076716 Z" id="Shape" fill="#4A4A4A"></path>
                                </g>
                            </g>
                        </g>
                    </g>
                </g>
            </g>
        </g>
    </g>
</svg>