<?xml version="1.0" encoding="UTF-8"?>
<svg width="40px" height="8px" viewBox="0 0 40 8" version="1.1" xmlns="http://www.w3.org/2000/svg" xmlns:xlink="http://www.w3.org/1999/xlink">
    <!-- Generator: Sketch 40.3 (33839) - http://www.bohemiancoding.com/sketch -->
    <title>ellipsis</title>
    <desc>Created with Sketch.</desc>
    <defs></defs>
    <g id="Page-1" stroke="none" stroke-width="1" fill="none" fill-rule="evenodd">
        <g id="ellipsis" transform="translate(-2.000000, -18.000000)">
            <rect id="bg" fill-opacity="0" fill="#00AAEE" x="0" y="0" width="44" height="44"></rect>
            <g id="Page-1" transform="translate(2.000000, 18.000000)" fill="#262435">
                <path d="M19.9691497,0.0067114094 C17.757385,0.0067114094 15.9705401,1.78281879 15.9705401,3.98110067 C15.9705401,6.17938255 17.757385,7.95543624 19.9691497,7.95543624 C22.1809144,7.95543624 23.9677594,6.17938255 23.9677594,3.98110067 C23.9677594,1.78281879 22.1809144,0.0067114094 19.9691497,0.0067114094" id="Fill-1"></path>
                <path d="M4.02460428,0.0067114094 C1.81283957,0.0067114094 0.0259946524,1.78281879 0.0259946524,3.98110067 C0.0259946524,6.17938255 1.81283957,7.95543624 4.02460428,7.95543624 C6.23636898,7.95543624 8.02326738,6.17938255 8.02326738,3.98110067 C8.02326738,1.78281879 6.22390909,0.0067114094 4.02460428,0.0067114094" id="Fill-3"></path>
                <path d="M35.9637487,0.0067114094 C33.751984,0.0067114094 31.965139,1.78281879 31.965139,3.98110067 C31.965139,6.17938255 33.751984,7.95543624 35.9637487,7.95543624 C38.1755134,7.95543624 39.9623583,6.17938255 39.9623583,3.98110067 C39.9623583,1.78281879 38.1754599,0.0067114094 35.9637487,0.0067114094" id="Fill-5"></path>
            </g>
        </g>
    </g>
</svg>