<?xml version="1.0" encoding="UTF-8"?>
<svg width="38px" height="36px" viewBox="0 0 38 36" version="1.1" xmlns="http://www.w3.org/2000/svg" xmlns:xlink="http://www.w3.org/1999/xlink">
    <!-- Generator: Sketch 40.3 (33839) - http://www.bohemiancoding.com/sketch -->
    <title>search</title>
    <desc>Created with Sketch.</desc>
    <defs></defs>
    <g id="Page-1" stroke="none" stroke-width="1" fill="none" fill-rule="evenodd">
        <g id="search" transform="translate(-3.000000, -4.000000)">
            <rect id="Rectangle-45" fill="#D8D8D8" opacity="0" x="0" y="0" width="44" height="44"></rect>
            <path d="M32.050545,29.2297035 C33.9410125,26.6137697 35.0544082,23.4044812 35.0544082,19.9362554 C35.0544082,11.1361574 27.8831106,4.00186317 19.0373432,4.00186317 C10.1915758,4.00186317 3.02027822,11.1362007 3.02027822,19.9362554 C3.02027822,28.7383033 10.1915758,35.8725975 19.0373432,35.8725975 C23.185106,35.8725975 26.9647412,34.3039818 29.8094983,31.7303808 L38.6823033,39.9621254 L40.9783786,37.5124903 L32.050545,29.2297035 L32.050545,29.2297035 Z M19.1992657,32.9331653 C12.0091197,32.9331653 6.1608894,27.1445131 6.1608894,20.0298039 C6.1608894,12.9169145 12.0091197,7.12644242 19.1992657,7.12644242 C26.3894116,7.12644242 32.0998974,12.9169145 32.0998974,20.0298039 C32.0998974,27.1445131 26.3894116,32.9331653 19.1992657,32.9331653 L19.1992657,32.9331653 Z" id="Shape" fill="#4A4A4A"></path>
        </g>
    </g>
</svg>