<?xml version="1.0" encoding="UTF-8"?>
<svg width="44px" height="44px" viewBox="0 0 44 44" version="1.1" xmlns="http://www.w3.org/2000/svg" xmlns:xlink="http://www.w3.org/1999/xlink">
    <!-- Generator: Sketch 40.3 (33839) - http://www.bohemiancoding.com/sketch -->
    <title>setting</title>
    <desc>Created with Sketch.</desc>
    <defs></defs>
    <g id="Page-1" stroke="none" stroke-width="1" fill="none" fill-rule="evenodd">
        <g id="setting">
            <rect id="Rectangle-44" fill="#D8D8D8" opacity="0" x="0" y="0" width="44" height="44"></rect>
            <path d="M37.4213333,17.3333333 L42,18.6666667 L42,25.3333333 L37.4213333,26.6666667 L37.296,26.6666667 C36.992,27.66 36.5933333,28.612 36.112,29.5133333 L36.232,29.6333333 L38.4986667,33.7853333 L33.7853333,38.5 L29.5773333,36.176 L29.5186667,36.1173333 C28.616,36.6 27.6626667,37.0013333 26.6666667,37.304 L26.6666667,37.4613333 L25.3333333,42 L18.6666667,42 L17.3333333,37.3826667 L17.3333333,37.304 C16.3373333,37.0013333 15.3853333,36.6 14.4826667,36.1173333 L14.368,36.2333333 L10.2146667,38.5 L5.50133333,33.7853333 L7.824,29.5773333 L7.888,29.5133333 C7.408,28.612 7.008,27.66 6.704,26.6666667 L6.53866667,26.6666667 L2,25.3333333 L2,18.6666667 L6.61866667,17.3333333 L6.704,17.3333333 C7.008,16.34 7.408,15.3893333 7.888,14.488 L7.796,14.396 L5.50133333,10.2146667 L10.2146667,5.50133333 L14.396,7.796 L14.4826667,7.88266667 C15.3853333,7.4 16.3373333,6.99866667 17.3333333,6.696 L17.3333333,6.58 L18.6666667,2 L25.3333333,2 L26.6666667,6.58 L26.6666667,6.696 C27.6626667,6.99866667 28.616,7.4 29.5186667,7.88266667 L29.604,7.796 L33.7853333,5.50133333 L38.4986667,10.2146667 L36.204,14.396 L36.112,14.488 C36.5933333,15.3893333 36.992,16.34 37.296,17.3333333 L37.4213333,17.3333333 L37.4213333,17.3333333 Z M22,13.3333333 C17.2133333,13.3333333 13.3333333,17.2133333 13.3333333,22 C13.3333333,26.7866667 17.2133333,30.6666667 22,30.6666667 C26.7866667,30.6666667 30.6666667,26.7866667 30.6666667,22 C30.6666667,17.2133333 26.7866667,13.3333333 22,13.3333333 L22,13.3333333 Z" id="Imported-Layers" stroke="#4A4A4A" stroke-width="3"></path>
        </g>
    </g>
</svg>