<?xml version="1.0" encoding="UTF-8"?>
<svg width="43px" height="38px" viewBox="0 0 43 38" version="1.1" xmlns="http://www.w3.org/2000/svg" xmlns:xlink="http://www.w3.org/1999/xlink">
    <!-- Generator: Sketch 40.3 (33839) - http://www.bohemiancoding.com/sketch -->
    <title>口碑按下</title>
    <desc>Created with Sketch.</desc>
    <defs></defs>
    <g id="Page-1" stroke="none" stroke-width="1" fill="none" fill-rule="evenodd">
        <g id="口碑按下" transform="translate(1.000000, 1.000000)">
            <path d="M3.92098228,0.227141354 C2.10674195,0.227141354 0.636790121,1.678881 0.636790121,3.47006042 L0.636790121,11.9289867 C0.636790121,20.7898945 6.71018607,28.4460274 14.2257894,31.4196139 C14.3672848,31.4761031 14.4745557,31.5647038 14.5363642,31.6519595 C14.6742839,31.8481587 14.6582784,32.0401548 14.6582784,32.0401548 L14.6582784,34.1875863 C14.6582784,34.1875863 14.6460189,34.6507644 15.0507537,35.0529139 C15.2933903,35.29417 15.5567999,35.3910087 15.8447286,35.4212708 C16.7304797,35.5149151 17.8072023,35.6352911 20.3376035,35.3024081 C23.8932081,34.833682 28.5865652,33.3570602 32.830236,29.691985 C38.6959108,24.6247663 40.9745556,17.7963014 40.9745556,11.9289867 L40.9745556,3.5625279 C40.9745556,1.77134848 39.5042622,0.227141354 37.6898516,0.227141354 L3.92098228,0.227141354 Z" id="Imported-Layers-Copy-9" stroke="#29A1F7" stroke-width="2" fill="#29A1F7"></path>
            <path d="M31.5061358,11.5059914 C31.5061358,10.4464445 32.3791153,9.58826214 33.4567385,9.58826214 C34.5338926,9.58826214 35.4068721,10.4464445 35.4068721,11.5059914 C35.4068721,12.5649235 34.5338926,13.423567 33.4567385,13.423567 C32.3791153,13.423567 31.5061358,12.5649235 31.5061358,11.5059914 Z" id="Path" fill="#FFFFFF"></path>
            <path d="M8.12653395,12.4647408 C8.12653395,18.552313 13.6909226,25.3124423 20.7526015,25.2486422 C24.0894706,25.2184946 28.759376,23.7267491 31.5309517,19.4654491" id="Path-1234" stroke="#FFFFFF" stroke-width="2" stroke-linecap="round" stroke-linejoin="round"></path>
        </g>
    </g>
</svg>