<?xml version="1.0" encoding="UTF-8"?>
<svg width="42px" height="42px" viewBox="0 0 42 42" version="1.1" xmlns="http://www.w3.org/2000/svg" xmlns:xlink="http://www.w3.org/1999/xlink">
    <!-- Generator: Sketch 42 (36781) - http://www.bohemiancoding.com/sketch -->
    <title>支付宝</title>
    <desc>Created with Sketch.</desc>
    <defs></defs>
    <g id="林外" stroke="none" stroke-width="1" fill="none" fill-rule="evenodd">
        <g id="支付宝" fill-rule="nonzero" fill="#888888">
            <path d="M0,21 C0,32.598 9.401,42 21,42 C32.598,42 42,32.598 42,21 C42,9.402 32.598,0 21,0 C9.401,0 0,9.402 0,21 Z M1.91,21 C1.91,10.456 10.455,1.91 21,1.91 C31.545,1.91 40.09,10.455 40.09,21 C40.09,24.535 39.112,27.835 37.437,30.674 C34.236,28.8 28.037,25.176 25.678,23.967 C26.758,22.024 27.442,19.74 28.636,17.182 L21.955,17.182 L21.955,15.272 L30.545,15.272 L30.545,13.364 L21.955,13.364 L21.955,9.545 C21.967,9.519 21.585,9.542 20.684,9.547 C20.1,9.55 20.109,10.283 20.109,10.283 L20.045,13.363 L11.455,13.363 L11.455,15.273 L20.045,15.273 L20.045,17.182 L13.364,17.182 L13.364,19.091 L25.397,19.091 C24.607,21.071 24.557,21.556 23.776,22.873 C23.809,22.915 22.112,21.782 17.484,21.07 C13.484,20.455 9.629,22.417 9.494,26.271 C9.457,27.353 9.694,31.166 14.695,31.561 C19.191,31.915 21.83,30.437 24.778,25.856 C27.125,26.976 32.795,30.765 35.936,32.87 C32.438,37.265 27.053,40.09 21,40.09 C10.456,40.09 1.91,31.544 1.91,21 L1.91,21 Z M22.85,24.82 C20.301,28.85 17.885,29.924 15.023,29.678 C11.283,29.357 11.141,26.478 11.666,25.245 C12.36,23.618 14.312,22.587 17.186,23.065 C19.249,23.407 21.149,24.003 22.85,24.819 L22.85,24.82 Z" id="Shape"></path>
        </g>
    </g>
</svg>