<?xml version="1.0" encoding="UTF-8"?>
<svg width="33px" height="34px" viewBox="0 0 33 34" version="1.1" xmlns="http://www.w3.org/2000/svg" xmlns:xlink="http://www.w3.org/1999/xlink">
    <!-- Generator: Sketch 40.3 (33839) - http://www.bohemiancoding.com/sketch -->
    <title>All friends can see</title>
    <desc>Created with Sketch.</desc>
    <defs></defs>
    <g id="Page-1" stroke="none" stroke-width="1" fill="none" fill-rule="evenodd">
        <g id="All-friends-can-see" transform="translate(-6.000000, -5.000000)">
            <rect id="Rectangle" fill="#D8D8D8" opacity="0" x="0" y="0" width="44" height="44"></rect>
            <g id="Group" transform="translate(6.000000, 5.000000)">
                <path d="M30.0000005,0.0268482294 L3.77644543,0.0268482294 C1.15961857,0.0268482294 0.0387540361,1.13274918 0.0387540361,3.73032196 L0.0387539952,6.99999991 L4.00000001,6.99999991 L4.00000001,11.0000004 L0.0387539952,11.0000004 L0.0387539952,15.0000004 L4.00000001,15.0000004 L4.00000001,19.0000004 L0.0387539952,19.0000004 L0.0387539952,23.0219333 L4.00000001,23.021933 L4.00000001,27.0000004 L0.0387539952,27.0000004 L0.0387539952,30.8968918 C0.0387539952,33.4931163 1.38317315,34.0000004 4.00000001,34.0000004 L10,34.0000004 L30.0000005,34.0000004 C32.6168692,34.0000004 33.0000005,32.4931155 33.0000005,29.896891 L33.0000005,3.99999991 C33.0000005,2.1925869 33.0000005,0.0268482294 30.0000005,0.0268482294 Z" id="Shape" fill="#4A4A4A"></path>
                <path d="M30.0000005,0.0268482294 L3.77644543,0.0268482294 C1.15961857,0.0268482294 0.0387540361,1.13274918 0.0387540361,3.73032196 L0.0387539952,6.99999991 L4.00000001,6.99999991 L4.00000001,11.0000004 L0.0387539952,11.0000004 L0.0387539952,15.0000004 L4.00000001,15.0000004 L4.00000001,19.0000004 L0.0387539952,19.0000004 L0.0387539952,23.0219333 L4.00000001,23.021933 L4.00000001,27.0000004 L0.0387539952,27.0000004 L0.0387539952,30.8968918 C0.0387539952,33.4931163 1.38317315,34.0000004 4.00000001,34.0000004 L10,34.0000004 L30.0000005,34.0000004 C32.6168692,34.0000004 33.0000005,32.4931155 33.0000005,29.896891 L33.0000005,3.99999991 C33.0000005,2.1925869 33.0000005,0.0268482294 30.0000005,0.0268482294 Z" id="Shape" fill="#4A4A4A"></path>
                <path d="M20.2694692,19.5114834 C20.2694692,19.5114834 21.8760179,17.9145524 22.2260539,15.7672801 C22.7481783,15.7672801 23.4151844,15.1648198 23.5178398,14.4028186 C23.6003928,13.7900357 23.2276932,13.0391378 22.8078134,12.6811241 C22.8470932,11.8356356 24.0185223,6.04347826 18.0882259,6.04347826 C12.1578957,6.04347826 13.3293586,11.8356356 13.3686384,12.6811241 C12.9543926,13.0343212 12.186568,13.7972983 12.2626674,14.4028186 C12.3596259,15.1743147 13.4224974,15.7672801 13.9501951,15.7672801 C14.3002649,17.9145524 15.9069488,19.5114834 15.9069488,19.5114834 C15.9069488,19.5114834 15.8944415,21.0210788 15.3477363,21.1083117 C13.5866038,21.3898673 7,23.806104 7,27.0000002 L29,27.0000002 C29.0002366,23.806104 22.589848,21.3898331 20.8287155,21.1083117 C20.2818075,21.0210788 20.2694692,19.5114834 20.2694692,19.5114834 Z" id="Shape" fill="#FFFFFF"></path>
            </g>
        </g>
    </g>
</svg>