<?xml version="1.0" encoding="UTF-8"?>
<svg width="40px" height="40px" viewBox="0 0 40 40" version="1.1" xmlns="http://www.w3.org/2000/svg" xmlns:xlink="http://www.w3.org/1999/xlink">
    <!-- Generator: Sketch 40.3 (33839) - http://www.bohemiancoding.com/sketch -->
    <title>Blacklist </title>
    <desc>Created with Sketch.</desc>
    <defs></defs>
    <g id="Page-1" stroke="none" stroke-width="1" fill="none" fill-rule="evenodd">
        <g id="Blacklist-" transform="translate(-2.000000, -4.000000)">
            <rect id="Rectangle-3" fill="#D8D8D8" opacity="0" x="0" y="0" width="44" height="44"></rect>
            <path d="M21.3708487,35.0064221 C21.3655885,35.0304031 21.3623542,35.0523631 21.3612285,35.0722212 C21.3124728,35.9323065 20.4110562,36.0101112 20.3634887,36.0101112 C19.3246762,36.0101112 4.29178288,35.9827881 3.32315495,35.9882202 C2.35452702,35.9936523 2.01660314,35.5306051 2.00113347,34.9476929 C1.9856638,34.3647807 2.13365567,31.6446622 2.13365567,31.6446622 C2.47226558,28.3950772 4.6627999,27.8329719 10.5679305,25.0281828 C13.3256571,23.7176869 13.7372458,23.2845167 13.7372458,22.2635796 C13.7372458,22.218074 13.7339164,22.169864 13.7271475,22.1190381 C13.6821853,21.7814264 13.4923349,21.3672611 13.198644,20.9356833 C12.9750402,20.6070982 12.7504689,20.3468394 12.6137758,20.209651 C11.8318537,19.4245199 11.3073438,18.2668535 10.96471,16.8294362 C10.7652461,15.9926451 10.6390998,15.1053677 10.5703661,14.2155562 C10.5275999,13.661914 10.5138415,13.2104029 10.5153215,12.908348 L10.5153215,12.4624153 C10.5153215,8.83924717 12.0893981,6.4179681 14.6819158,5.07416448 C15.5774303,4.60998418 16.5284835,4.31100854 17.4782535,4.14159017 C18.0517406,4.0392925 18.5060398,4.00238222 18.7936492,4 L19.2617275,4.00003308 C19.5414698,4.00238215 19.9957945,4.03929183 20.5693154,4.14158811 C21.5191431,4.3110045 22.4702543,4.60997669 23.3658239,5.07415191 C25.9585167,6.41794888 27.5327094,8.839231 27.5327094,12.4624153 C27.5327094,12.4624153 27.5326999,12.9034379 27.5327457,12.9115285 C27.5341685,13.2098261 27.5203918,13.6611183 27.4775984,14.2147173 C27.4087939,15.1048111 27.2825471,15.9924117 27.0829411,16.8295034 C26.7401921,18.2668976 26.2156236,19.4245397 25.4335689,20.2098039 C25.2970281,20.3468394 25.0724568,20.6070982 24.848853,20.9356833 C24.5551621,21.3672611 24.3653117,21.7814264 24.3203495,22.1190381 C24.3135806,22.169864 24.3102512,22.218074 24.3102512,22.2635796 C24.3102512,23.1935886 25.0265506,23.623663 27.287612,24.4815476 C27.5781593,24.5978817 27.9850646,24.9928645 27.3758647,25.3896181 C23.9284047,27.2637195 21.5463724,30.8496812 21.3708487,35.0064221 Z M32.8604474,44 C37.5548678,44 41.3604474,40.1944204 41.3604474,35.5 C41.3604474,30.8055796 37.5548678,27 32.8604474,27 C28.1660271,27 24.3604474,30.8055796 24.3604474,35.5 C24.3604474,40.1944204 28.1660271,44 32.8604474,44 Z M27.3604474,35.5 C27.3604474,34.6715729 28.0319881,34 28.866886,34 L36.8540089,34 C37.6859919,34 38.3604474,34.6657972 38.3604474,35.5 C38.3604474,36.3284271 37.6889068,37 36.8540089,37 L28.866886,37 C28.0349029,37 27.3604474,36.3342028 27.3604474,35.5 Z" id="拉黑" fill="#4A4A4A"></path>
        </g>
    </g>
</svg>