<?xml version="1.0" encoding="UTF-8"?>
<svg width="32px" height="36px" viewBox="0 0 32 36" version="1.1" xmlns="http://www.w3.org/2000/svg" xmlns:xlink="http://www.w3.org/1999/xlink">
    <!-- Generator: Sketch 40.3 (33839) - http://www.bohemiancoding.com/sketch -->
    <title>Shape</title>
    <desc>Created with Sketch.</desc>
    <defs></defs>
    <g id="Page-1" stroke="none" stroke-width="1" fill="none" fill-rule="evenodd">
        <g id="Shape" transform="translate(-6.000000, -4.000000)">
            <rect id="Rectangle" fill="#D8D8D8" opacity="0" x="0" y="0" width="44" height="44"></rect>
            <path d="M31.5933569,16.8571429 L31.5933569,14.2857143 C31.5933569,8.20409169 27.9478229,4 22.1859984,4 C15.2391145,4 12.3734269,8.20413489 12.3734269,14.2857143 L12.3734269,16.8571429 L8.52944074,16.8571429 C6.92385769,16.8571429 6,17.908101 6,19.4285714 L6,37.6774194 C6,39.1980624 6.92413112,40 8.52944074,40 L35.4373428,40 C37.0426524,40 38,38.9492577 38,37.4285714 L38,19.4285714 C38,17.9083169 37.0426524,16.8571429 35.4373428,16.8571429 L31.5933569,16.8571429 Z M22.4628031,7.35531281 C25.8725403,7.35531281 27.8463012,10.3731667 27.8463012,14.0122111 L27.8463012,16.9027516 L16.250629,16.9027516 L16.250629,14.0122111 C16.250629,12.7098255 17.1451456,7.35531281 22.4628031,7.35531281 Z M19.1081516,26.2393779 C19.1081516,27.1016504 19.4700214,27.8943045 20.0613984,28.4285714 L20.2279584,31.4126359 C20.2279584,32.4878926 20.9477787,33.0556941 22.019641,33.0556941 C23.09123,33.0556941 24.1171898,32.4878926 24.1171898,31.4126359 L23.9053842,28.4285714 C24.4967612,27.8943045 25.1255091,27.2158273 25.1255091,26.3537834 C25.1255092,24.7403266 23.7085956,23.3184719 22.1005513,23.3184719 C20.4922791,23.3184719 19.1081516,24.6259211 19.1081516,26.2393779 Z" fill="#4A4A4A"></path>
        </g>
    </g>
</svg>