<?xml version="1.0" encoding="UTF-8"?>
<svg width="40px" height="30px" viewBox="0 0 40 30" version="1.1" xmlns="http://www.w3.org/2000/svg" xmlns:xlink="http://www.w3.org/1999/xlink">
    <!-- Generator: Sketch 42 (36781) - http://www.bohemiancoding.com/sketch -->
    <title>team</title>
    <desc>Created with Sketch.</desc>
    <defs></defs>
    <g id="Page-1" stroke="none" stroke-width="1" fill="none" fill-rule="evenodd">
        <g id="team" fill-rule="nonzero" fill="#4A4A4A">
            <path d="M19.625,19.375 C19.271,19.16 19.375,18.563 19.375,18.563 C19.375,18.563 21.244,16.949 21.697,14.205 C22.373,14.205 23.437,12.969 23.531,11.719 C23.719,10.219 23.093,9.594 22.631,9.097 C23.156,7.282 23.233,0.032 15.559,0.032 C7.884,0.032 8.156,6.72 8.383,9.126 C7.847,9.577 6.962,10.728 7.156,11.969 C7.371,13.35 8.695,14 9.249,14.134 C9.906,16.75 11.688,18.593 11.688,18.593 C11.688,18.593 11.876,19.281 11.313,19.374 C9.033,19.735 -1,24.312 0.25,29.5 L30.875,29.5 C31.188,24 21.904,19.735 19.625,19.375 Z" id="Shape"></path>
            <path d="M30.058,17.202 C29.823,17.167 30.667,17.042 31.021,14.715 C31.708,14.667 32.637,13.568 32.724,12.407 C32.898,11.014 32.318,10.434 31.889,9.972 C32.366,8.321 32.874,2.307 25.755,0.965 C26.019,1.474 27.417,4.225 27.417,5.584 C27.417,7.084 27.125,9.167 27.125,9.167 C27.125,9.167 28.583,10 28.042,11.625 C27.411,12.431 26.5,12.048 26.5,12.048 C26.5,12.048 26.458,15.208 23.792,17.666 C24.064,18.013 25.167,19.166 25.167,19.166 C25.167,19.166 26.479,18.145 32.417,23.666 C34.87,25.947 35.869,28.337 36.251,29.499 L39.75,29.499 C39.57,23.521 33.792,20.708 30.058,17.202 Z" id="Shape"></path>
        </g>
    </g>
</svg>