<?xml version="1.0" encoding="UTF-8"?>
<svg width="62px" height="72px" viewBox="0 0 62 72" version="1.1" xmlns="http://www.w3.org/2000/svg" xmlns:xlink="http://www.w3.org/1999/xlink">
    <!-- Generator: Sketch 41.1 (35376) - http://www.bohemiancoding.com/sketch -->
    <title>QQicon</title>
    <desc>Created with Sketch.</desc>
    <defs></defs>
    <g id="Page-1" stroke="none" stroke-width="1" fill="none" fill-rule="evenodd">
        <g id="QQicon" transform="translate(-5.000000, 0.000000)">
            <rect id="icon100-4" x="0" y="0" width="72" height="72"></rect>
            <g id="QQ" transform="translate(5.000000, 0.000000)">
                <path d="M43.5700694,60.4037143 C36.800875,60.0887143 31.1825556,62.3751429 31.0017222,65.514 C30.8226111,62.3751429 25.2004167,60.0887143 18.4260556,60.4037143 C11.6374861,60.7212857 6.26243056,63.5301429 6.42130556,66.6801429 C6.57845833,69.8292857 12.2114167,72.1264286 18.999125,71.8105714 C25.571125,71.505 30.8165833,68.8624286 31.0017222,65.8358571 C31.1885833,68.8624286 36.4297361,71.505 42.9965694,71.8105714 C49.7795417,72.1264286 55.408625,69.8292857 55.5675,66.6801429 C55.7246528,63.5301429 50.3547639,60.7212857 43.5700694,60.4037143" id="Fill-1" fill="#52564E"></path>
                <path d="M43.5700694,60.4037143 C36.800875,60.0887143 31.1825556,62.3751429 31.0017222,65.514 C30.8226111,62.3751429 25.2004167,60.0887143 18.4260556,60.4037143 C11.6374861,60.7212857 6.26243056,63.5301429 6.42130556,66.6801429 C6.57845833,69.8292857 12.2114167,72.1264286 18.999125,71.8105714 C25.571125,71.505 30.8165833,68.8624286 31.0017222,65.8358571 C31.1885833,68.8624286 36.4297361,71.505 42.9965694,71.8105714 C49.7795417,72.1264286 55.408625,69.8292857 55.5675,66.6801429 C55.7246528,63.5301429 50.3547639,60.7212857 43.5700694,60.4037143" id="Fill-2" fill="#FFAA00"></path>
                <path d="M9.75638889,27.7264286 C9.75638889,28.2064286 9.10366667,28.5955714 8.29852778,28.5955714 C7.49295833,28.5955714 6.84023611,28.2064286 6.84023611,27.7264286 C6.84023611,27.2472857 7.49295833,26.8564286 8.29852778,26.8564286 C9.10366667,26.8564286 9.75638889,27.2472857 9.75638889,27.7264286" id="Fill-3" fill="#52564E"></path>
                <path d="M54.9165,27.7264286 C54.9165,28.2064286 54.2633472,28.5955714 53.4586389,28.5955714 C52.6539306,28.5955714 52.0012083,28.2064286 52.0012083,27.7264286 C52.0012083,27.2472857 52.6539306,26.8564286 53.4586389,26.8564286 C54.2633472,26.8564286 54.9165,27.2472857 54.9165,27.7264286" id="Fill-4" fill="#52564E"></path>
                <path d="M53.626125,31.4391429 C53.4551944,31.905 53.3032083,32.3704286 53.1658611,32.8354286 C49.1685833,24.2507143 40.6866389,18.3265714 30.86825,18.3265714 C21.0924861,18.3265714 12.6424028,24.204 8.62575,32.7317143 C8.49873611,32.3014286 8.35880556,31.8707143 8.20423611,31.44 C8.20423611,31.44 -3.92795833,43.8128571 1.60511111,55.545 C2.45029167,57.2052857 5.06118056,55.0307143 7.07144444,50.8208571 C10.0297917,61.1382857 19.6695,67.2578571 31.0030139,67.2578571 C42.3744167,67.2578571 51.8556806,61.0384286 54.7184444,50.6901429 C56.7760694,54.984 59.4834028,57.2211429 60.3539861,55.5441429 C65.9964167,43.8102857 53.626125,31.4391429 53.626125,31.4391429" id="Fill-5" fill="#52564E"></path>
                <path d="M53.626125,31.4391429 C53.4551944,31.905 53.3032083,32.3704286 53.1658611,32.8354286 C49.1685833,24.2507143 40.6866389,18.3265714 30.86825,18.3265714 C21.0924861,18.3265714 12.6424028,24.204 8.62575,32.7317143 C8.49873611,32.3014286 8.35880556,31.8707143 8.20423611,31.44 C8.20423611,31.44 -3.92795833,43.8128571 1.60511111,55.545 C2.45029167,57.2052857 5.06118056,55.0307143 7.07144444,50.8208571 C10.0297917,61.1382857 19.6695,67.2578571 31.0030139,67.2578571 C42.3744167,67.2578571 51.8556806,61.0384286 54.7184444,50.6901429 C56.7760694,54.984 59.4834028,57.2211429 60.3539861,55.5441429 C65.9964167,43.8102857 53.626125,31.4391429 53.626125,31.4391429" id="Fill-6" fill="#000000"></path>
                <path d="M11.2538611,45.711 C11.2538611,57.3441429 18.9035417,66.2682857 30.6236944,66.2682857 C42.3442778,66.2682857 49.913875,57.3441429 49.913875,45.711 C49.913875,34.6152857 41.5567917,26.1651429 30.5832222,26.1651429 C19.6087917,26.1651429 11.2538611,34.6152857 11.2538611,45.711" id="Fill-7" fill="#FFFFFF"></path>
                <path d="M54.2982222,24.1911429 C53.9288056,37.0508571 50.3521806,40.134 30.9104444,40.134 C11.4656944,40.134 7.43268056,37.0555714 7.43268056,24.1911429 C7.43268056,10.149 17.9235972,0.0381428571 30.8635139,0.0381428571 C43.8077361,0.0381428571 54.6585972,11.5937143 54.2982222,24.1911429" id="Fill-8" fill="#000000"></path>
                <path d="M40.9497083,31.632 C35.9711944,34.3118571 34.5873889,35.7325714 30.6736389,35.8718571 C26.7585972,36.0102857 25.3769444,34.3118571 20.3971389,31.632 C12.5631806,27.4165714 16.0554167,27.0621429 21.037375,25.5257143 C23.9935694,24.6145714 28.0558611,24.1688571 30.6736389,24.1688571 C33.2892639,24.1688571 37.3537083,24.6145714 40.3090417,25.5257143 C45.2927222,27.0621429 48.7832361,27.4165714 40.9497083,31.632" id="Fill-9" fill="#FFAA00"></path>
                <path d="M42.5431944,27.8507143 C42.5431944,27.8507143 41.0237639,30.1512857 36.8908611,31.7777143 C34.7255972,32.6292857 33.8296111,34.5844286 30.6736389,34.5844286 C27.5180972,34.5844286 26.6165139,32.6412857 24.4559861,31.7777143 C20.3799167,30.1512857 18.8045139,27.8507143 18.8045139,27.8507143 C19.7215972,28.5792857 23.3270694,32.0931429 30.6172361,32.0931429 C37.9108472,32.0931429 41.6261111,28.5792857 42.5431944,27.8507143" id="Fill-10" fill="#AC2B28"></path>
                <path d="M19.9032917,17.4441429 C19.7719722,13.9572857 21.6237917,11.0434286 24.0413611,10.9345714 C26.4559167,10.8274286 28.52,13.5668571 28.6513194,17.0524286 C28.7835,20.5388571 26.9316806,23.4527143 24.5154028,23.5607143 C22.0986944,23.6691429 20.0328889,20.9284286 19.9032917,17.4441429" id="Fill-11" fill="#FFFFFF"></path>
                <path d="M32.3631389,17.3781429 C32.3631389,13.8985714 34.3195833,11.0772857 36.7315556,11.0772857 C39.1430972,11.0772857 41.1004028,13.8985714 41.1004028,17.3781429 C41.1004028,20.8564286 39.1430972,23.6764286 36.7315556,23.6764286 C34.3195833,23.6764286 32.3631389,20.8564286 32.3631389,17.3781429" id="Fill-12" fill="#FFFFFF"></path>
                <path d="M37.9366806,19.038 C37.6245278,19.038 37.3717917,18.7847143 37.3717917,18.4731429 L37.3717917,18.3424286 C37.3717917,16.8758571 36.8112083,15.7277143 36.0977778,15.7277143 C35.382625,15.7277143 34.8220417,16.8758571 34.8220417,18.3424286 L34.8220417,18.4731429 C34.8220417,18.7847143 34.5701667,19.038 34.2571528,19.038 C33.945,19.038 33.6905417,18.7847143 33.6905417,18.4731429 L33.6905417,18.3424286 C33.6905417,16.1391429 34.6825417,14.5992857 36.0977778,14.5992857 C37.5121528,14.5992857 38.5032917,16.1391429 38.5032917,18.3424286 L38.5032917,18.4731429 C38.5032917,18.7847143 38.2484028,19.038 37.9366806,19.038" id="Fill-13" fill="#52564E"></path>
                <path d="M27.4909722,16.8578571 C27.6059306,18.4761429 26.8162917,19.914 25.7295694,20.0712857 C24.641125,20.2281429 23.6663472,19.044 23.5500972,17.4248571 C23.4368611,15.8057143 24.2252083,14.3678571 25.3102083,14.2122857 C26.400375,14.0545714 27.376875,15.24 27.4909722,16.8578571" id="Fill-14" fill="#52564E"></path>
                <path d="M26.6978889,16.7652857 C26.7159722,17.3061429 26.4128611,17.769 26.0219167,17.7977143 C25.6339861,17.829 25.3050417,17.4158571 25.2869583,16.8728571 C25.2710278,16.3332857 25.5737083,15.8682857 25.9620694,15.8391429 C26.3525833,15.8104286 26.6806667,16.2244286 26.6978889,16.7652857" id="Fill-15" fill="#FFFFFF"></path>
                <path d="M55.1610556,28.4987143 C54.9754861,27.6321429 54.8596667,27.2802857 54.4876667,27.1007143 C54.4205,27.243 54.3348194,27.4015714 54.2293333,27.5738571 C52.6156111,30.0947143 45.1368611,36.9501429 30.8691111,37.035 C16.6009306,36.9501429 9.12390278,30.0947143 7.50975,27.5738571 C7.40469444,27.4015714 7.31944444,27.243 7.25141667,27.1007143 C6.87984722,27.2802857 6.76015278,27.6321429 6.57673611,28.4987143 C5.50293056,33.606 5.28248611,34.5428571 5.29066667,34.5535714 C5.99118056,35.6202857 7.18252778,36.741 8.74673611,37.8265714 C10.4771389,39.0724286 12.5308889,40.1597143 14.7904444,41.0644286 C14.418875,43.0714286 14.0214722,46.0281429 14.0214722,49.5064286 C14.0214722,50.6592857 14.1153333,50.9725714 14.5837778,51.4748571 C15.705375,52.6731429 20.0307361,53.2084286 21.8834167,53.163 C22.6157917,53.1437143 23.2930556,52.6551429 23.2930556,51.8112857 C23.2930556,49.9101429 23.2827222,46.1507143 23.2758333,43.4614286 C25.6378611,43.89 28.1040833,44.1338571 30.6017361,44.1338571 C30.6912917,44.1338571 30.7804167,44.1338571 30.8691111,44.133 C30.9578056,44.1338571 31.0473611,44.1338571 31.1369167,44.1338571 C34.6205417,44.1338571 38.0434583,43.6568571 41.2076111,42.8704286 C45.7155278,41.7968571 49.8785694,40.0671429 52.9910556,37.8265714 C54.5574167,36.741 55.7461806,35.6202857 56.4484167,34.5535714 C56.4570278,34.5428571 56.028625,32.5422857 55.1610556,28.4987143" id="Fill-16" fill="#E32B10"></path>
            </g>
        </g>
    </g>
</svg>