<?xml version="1.0" encoding="UTF-8"?>
<svg width="73px" height="60px" viewBox="0 0 73 60" version="1.1" xmlns="http://www.w3.org/2000/svg" xmlns:xlink="http://www.w3.org/1999/xlink">
    <!-- Generator: Sketch 41.1 (35376) - http://www.bohemiancoding.com/sketch -->
    <title>微信icon</title>
    <desc>Created with Sketch.</desc>
    <defs></defs>
    <g id="Page-1" stroke="none" stroke-width="1" fill="none" fill-rule="evenodd">
        <g id="微信icon" transform="translate(0.500000, -6.000000)">
            <rect id="icon100-4" x="0" y="0" width="72" height="72"></rect>
            <path d="M50.0338983,26.8163265 C37.9015791,26.8163265 28.0677966,35.2106125 28.0677966,45.1836735 C28.0677966,55.919661 37.9015791,64.313947 50.0338983,64.7755102 C53.466445,64.313947 56.7024625,63.6216603 59.7966102,62.3265306 L65.8983051,66 L64.6779661,59.877551 C69.0215455,56.3377624 72,51.2523089 72,45.1836735 C72,35.2106125 62.1649969,26.8163265 50.0338983,26.8163265 Z M42.7118644,41.5102041 C40.4172099,41.5102041 39.0508475,40.1393281 39.0508475,37.8367347 C39.0508475,36.7586311 40.4172099,35.3877551 42.7118644,35.3877551 C43.7874837,35.3877551 45.1525424,36.7586311 45.1525424,37.8367347 C45.1525424,40.1393281 43.7874837,41.5102041 42.7118644,41.5102041 L42.7118644,41.5102041 Z M57.3559322,41.5102041 C56.2813248,41.5102041 54.9152542,40.1393281 54.9152542,37.8367347 C54.9152542,36.7586311 56.2813248,35.3877551 57.3559322,35.3877551 C59.6508786,35.3877551 61.0169492,36.7586311 61.0169492,37.8367347 C61.0169492,40.1393281 59.6508786,41.5102041 57.3559322,41.5102041 L57.3559322,41.5102041 Z M50.0338983,24.3673469 C50.3692314,24.7735777 50.8098931,24.8108466 51.2542373,24.3673469 C49.4265345,14.1842463 38.7352708,6 25.6271186,6 C11.5419004,6 0,15.8750112 0,28.0408163 C0,35.0175509 3.77938013,41.2166081 9.76271186,45.1836735 L7.3220339,53.755102 L15.8644068,48.8571429 C19.2602318,49.5511722 22.4406065,50.1114478 25.6271186,50.0816327 C26.1573857,50.1114478 26.5243992,50.0779058 26.8474576,50.0816327 C26.4495235,48.4964629 26.1856175,46.8678128 25.6271186,45.1836735 C26.1856175,33.9106651 36.8105978,24.7735777 50.0338983,24.3673469 L50.0338983,24.3673469 Z M35.3898305,17.0204082 C37.6841859,17.0204082 39.0508475,18.3910201 39.0508475,19.4693878 C39.0508475,21.7722452 37.6841859,23.1428571 35.3898305,23.1428571 C34.314678,23.1428571 32.9491525,21.7722452 32.9491525,19.4693878 C32.9491525,18.3910201 34.314678,17.0204082 35.3898305,17.0204082 L35.3898305,17.0204082 Z M12.2033898,19.4693878 C12.2033898,18.3910201 13.5689153,17.0204082 14.6440678,17.0204082 C16.9395593,17.0204082 18.3050847,18.3910201 18.3050847,19.4693878 C18.3050847,21.7722452 16.9395593,23.1428571 14.6440678,23.1428571 C13.5689153,23.1428571 12.2033898,21.7722452 12.2033898,19.4693878 Z" id="微信好友" fill="#4CBF00"></path>
        </g>
    </g>
</svg>