<?xml version="1.0" encoding="UTF-8"?>
<svg width="73px" height="59px" viewBox="0 0 73 59" version="1.1" xmlns="http://www.w3.org/2000/svg" xmlns:xlink="http://www.w3.org/1999/xlink">
    <!-- Generator: Sketch 41.1 (35376) - http://www.bohemiancoding.com/sketch -->
    <title>微博icon</title>
    <desc>Created with Sketch.</desc>
    <defs></defs>
    <g id="Page-1" stroke="none" stroke-width="1" fill="none" fill-rule="evenodd">
        <g id="微博icon" transform="translate(0.500000, -6.000000)">
            <g id="Group-2">
                <rect id="icon100-4" x="0" y="0" width="72" height="72"></rect>
                <g id="微博" transform="translate(0.000000, 6.000000)">
                    <path d="M59.4911471,23.2750397 C60.449517,23.2750397 61.2656471,22.5655687 61.4020574,21.641526 C61.4195459,21.5723094 61.4277072,21.5123216 61.4277072,21.433876 C62.8815846,8.37384159 50.7189149,10.6210766 50.7189149,10.6210766 C49.6392914,10.6210766 48.7741935,11.4943604 48.7741935,12.5833695 C48.7741935,13.6550745 49.6392914,14.5272047 50.7189149,14.5272047 C59.4550042,12.6006737 57.5277714,21.3312046 57.5277714,21.3312046 C57.5277714,22.4109848 58.4080259,23.2750397 59.4911471,23.2750397 L59.4911471,23.2750397 Z" id="Imported-Layers" fill="#E89213"></path>
                    <path d="M57.5265558,0.474857509 C53.2896265,-0.530132287 48.9328837,0.335831957 47.7112573,0.572646669 C47.617286,0.58207213 47.529188,0.671614011 47.4422645,0.689286751 C47.3999775,0.698712212 47.3741354,0.74230497 47.3741354,0.74230497 C46.1701285,1.08751248 45.2903226,2.21621146 45.2903226,3.54991421 C45.2903226,5.1392826 46.5624586,6.44588716 48.1482237,6.44588716 C48.1482237,6.44588716 49.690527,6.23617065 50.7359574,5.82145035 C51.7731652,5.39848278 60.5489066,5.50687559 64.906824,12.9223572 C67.2854717,18.33375 65.9522543,21.9554835 65.7854553,22.5363275 C65.7854553,22.5363275 65.2204531,23.9430776 65.2204531,25.3274422 C65.2204531,26.9250579 66.4925891,27.9300477 68.0689571,27.9300477 C69.3857294,27.9300477 70.4922411,27.7474294 70.8152673,25.4912096 L70.8328869,25.4912096 C75.5126559,9.69060216 65.1076876,2.26687331 57.5265558,0.474857509 L57.5265558,0.474857509 Z" id="Path" fill="#E89213"></path>
                    <path d="M53.3313439,28.1181464 C50.5300502,27.564044 51.8917741,26.0294263 51.8917741,26.0294263 C51.8917741,26.0294263 54.63265,21.4290876 51.3491759,18.0833867 C47.2802706,13.9422618 37.392668,18.6117169 37.392668,18.6117169 C33.6165566,19.8042672 34.6169357,18.0658147 35.1514007,15.1090399 C35.1514007,11.6239348 33.9790633,5.72561412 23.9195024,9.20954773 C13.8703985,12.7122248 5.24111245,24.983309 5.24111245,24.983309 C-0.758838148,33.1378692 0.0347261935,39.4403449 0.0347261935,39.4403449 C1.53355196,53.3526501 16.0512481,57.1716223 27.3424022,58.0759925 C39.2214678,59.0248782 55.2530942,53.905581 60.1155638,43.3905211 C64.9757097,32.8567178 56.1419327,28.6886493 53.3313439,28.1181464 L53.3313439,28.1181464 Z" id="Path" fill="#D32B2A"></path>
                    <path d="M6.96774194,40.3202013 C6.96774194,32.4756548 16.565649,26.1844385 28.4375757,25.6437513 C40.3188606,25.1019186 49.9354839,29.9440474 49.9354839,37.7725565 C49.9354839,45.6079388 40.3188606,52.9633466 28.4375757,53.4971607 C16.565649,54.0458666 6.96774194,48.1567291 6.96774194,40.3202013 Z" id="Path" fill="#FFFFFF"></path>
                    <path d="M25.4209871,31.5366086 C13.8010417,32.9222743 15.1441248,44.0190898 15.1441248,44.0190898 C15.1441248,44.0190898 15.0257514,47.5326601 18.2593947,49.3216166 C25.0578994,53.0764719 32.0578665,50.8026473 35.5954108,46.1469944 C39.1340934,41.4890435 37.0568674,30.1589858 25.4209871,31.5366086 L25.4209871,31.5366086 Z" id="Path" fill="#030000"></path>
                    <path d="M22.6445709,46.5162684 C20.3941809,46.7779629 18.5806452,45.4926493 18.5806452,43.6272075 C18.5806452,41.7710293 20.1911027,39.8268477 22.4426734,39.5941017 C25.0283787,39.3497763 26.7096774,40.8249922 26.7096774,42.6904339 C26.7096774,44.5466121 24.8866962,46.2638375 22.6445709,46.5162684 L22.6445709,46.5162684 Z" id="Path" fill="#FFFFFF"></path>
                </g>
            </g>
        </g>
    </g>
</svg>