<?xml version="1.0" encoding="UTF-8"?>
<svg width="70px" height="70px" viewBox="0 0 70 70" version="1.1" xmlns="http://www.w3.org/2000/svg" xmlns:xlink="http://www.w3.org/1999/xlink">
    <!-- Generator: Sketch 41.1 (35376) - http://www.bohemiancoding.com/sketch -->
    <title>支付宝icon</title>
    <desc>Created with Sketch.</desc>
    <defs></defs>
    <g id="Page-1" stroke="none" stroke-width="1" fill="none" fill-rule="evenodd">
        <g id="支付宝icon" transform="translate(-1.000000, -1.000000)">
            <g id="Group">
                <rect id="icon100-4" x="0" y="0" width="72" height="72"></rect>
                <path d="M70.9883597,37.2064588 C70.7972319,43.7846927 68.6200476,50.1205865 64.9558839,55.3038862 L68.5753694,68.575333 L56.5104178,64.9558475 C50.0732419,68.802364 42.8543226,71.179586 34.7935048,70.9883233 C15.7692311,70.4720194 0.518302947,54.4034795 1.01164028,34.7934684 C1.52819732,15.7692366 17.596567,0.519061038 37.2064952,1.01160388 C56.2307689,1.52825677 71.4816971,17.5963159 70.9883597,37.2064588 L70.9883597,37.2064588 Z M54.0974274,43.2389346 C52.3133808,42.7720334 49.1270158,40.9210748 45.6519613,39.6194491 C47.8670464,36.1193125 51.2489028,32.0043794 51.6844371,27.5544975 C51.8071017,27.6859592 39.6193534,27.5834907 39.6194855,27.5544975 L39.6194855,25.1415071 L52.8909323,25.1415071 L52.8909323,21.5220217 L39.6194855,21.5220217 L39.6194855,15.4895458 L33.5870097,15.4895458 L32.3805145,15.4895458 L32.3805145,21.5220217 L17.9025726,21.5220217 L17.9025726,25.1415071 L32.3805145,25.1415071 L32.3805145,27.5544975 L20.3155629,27.5544975 L20.3155629,31.173983 L44.4454661,31.173983 C43.3678173,33.4365221 41.6746953,35.9404759 40.8259807,38.4129539 C33.13279,35.9508678 25.40527,34.0032407 20.3155629,34.7934684 C17.449108,35.9728598 15.4617737,37.359085 14.2830871,38.4129539 C10.6970954,43.1009477 12.1705942,47.3811839 11.8700967,46.8584201 C12.1705942,47.3490416 12.175713,47.3345413 11.8700967,46.8584201 C12.7234304,51.3934068 17.5668416,55.3038862 23.9350484,55.3038862 C30.8653813,55.3038862 37.6403068,51.8719155 43.238971,45.6519249 C46.2297443,47.4577936 53.4972986,50.6311763 60.1299033,52.8908959 C61.6260392,51.2645961 62.8506642,48.8437771 63.7493887,46.8584201 C62.6510289,46.0384595 60.0872141,45.390056 54.0974274,43.2389346 L54.0974274,43.2389346 Z M22.7285532,51.6844007 C14.7016156,51.6844007 12.0048405,44.5194099 16.6960774,40.8259443 C16.2830855,40.7262084 16.3196335,40.6895959 16.6960774,40.8259443 C18.2705925,39.0405594 20.3894367,38.6476509 21.522058,38.4129539 C26.9103176,37.9650368 31.632091,39.9664377 37.2064952,43.2389346 C33.2937308,48.2489696 28.2986723,51.6844007 22.7285532,51.6844007 L22.7285532,51.6844007 Z" id="我的朋友" fill="#00AAEE"></path>
            </g>
        </g>
    </g>
</svg>