<?xml version="1.0" encoding="UTF-8"?>
<svg width="61px" height="70px" viewBox="0 0 61 70" version="1.1" xmlns="http://www.w3.org/2000/svg" xmlns:xlink="http://www.w3.org/1999/xlink">
    <!-- Generator: Sketch 41.1 (35376) - http://www.bohemiancoding.com/sketch -->
    <title>生活圈icon</title>
    <desc>Created with Sketch.</desc>
    <defs></defs>
    <g id="Page-1" stroke="none" stroke-width="1" fill="none" fill-rule="evenodd">
        <g id="生活圈icon" transform="translate(-6.000000, -1.000000)">
            <rect id="icon100-4" x="0" y="0" width="72" height="72"></rect>
            <path d="M10.6138545,17.8965517 C7.9593079,17.8965517 7.65919757,16.7920016 9.92670634,15.4395103 L31.6529305,2.48056139 C33.9279756,1.12357486 36.8030964,1.9193265 38.0630695,4.2365465 L43.1998018,13.6835251 C44.4649787,16.0103155 43.3429939,17.8965517 40.6841255,17.8965517 L10.6138545,17.8965517 Z" id="Path-82" fill="#F15A4A"></path>
            <path d="M39.0181953,3.43494331 C37.6997678,1.12892026 38.4611691,0.372217013 40.7266362,1.74954346 L61.4423969,14.3440174 C63.7043703,15.7192198 64.5097405,18.7233348 63.2408172,21.0546759 L58.637596,29.5119866 C57.3688628,31.8429785 55.2737011,31.8669742 53.9531271,29.5571968 L39.0181953,3.43494331 Z" id="Path-83" fill="#A472C2"></path>
            <path d="M64.6905019,22.5900424 C65.9660025,20.2616938 67,20.520679 67,23.1743803 L67,48.0963659 C67,50.7474353 64.8489872,52.8965517 62.2033036,52.8965517 L52.8848853,52.8965517 C50.235743,52.8965517 49.1184003,51.0159635 50.397687,48.6807038 L64.6905019,22.5900424 Z" id="Path-84" fill="#418BD1"></path>
            <path d="M62.5807256,54.1034483 C65.232495,54.1034483 65.5476573,55.2210436 63.288987,56.5970316 L42.1485896,69.4758176 C39.8879822,70.8529856 36.9807096,70.1079907 35.6565222,67.8144362 L30.1393366,58.2584129 C28.8144742,55.9636893 29.8858275,54.1034483 32.5419142,54.1034483 L62.5807256,54.1034483 Z" id="Path-85-Copy-2" fill="#29AB91"></path>
            <path d="M33.9753267,68.4704185 C35.3096461,70.7593508 34.5245324,71.5474456 32.2264865,70.2333996 L11.5950031,58.4361074 C9.29482592,57.1208427 8.50946816,54.2031384 9.84752131,51.9078011 L14.6665271,43.6411315 C16.0015967,41.3509123 18.1633077,41.3459983 19.4998836,43.6388013 L33.9753267,68.4704185 Z" id="Path-86" fill="#EDD03D"></path>
            <path d="M8.44942879,48.9684873 C7.09664662,51.2522355 6,50.950925 6,48.3043033 L6,23.9027243 C6,21.2521573 8.15533663,19.1034483 10.7984528,19.1034483 L21.341583,19.1034483 C23.9916954,19.1034483 25.0429175,20.9555884 23.6906071,23.2385402 L8.44942879,48.9684873 Z" id="Path-87" fill="#F39826"></path>
        </g>
    </g>
</svg>