<?xml version="1.0" encoding="UTF-8"?>
<svg width="120px" height="120px" viewBox="0 0 120 120" version="1.1" xmlns="http://www.w3.org/2000/svg" xmlns:xlink="http://www.w3.org/1999/xlink">
    <!-- Generator: Sketch 40.3 (33839) - http://www.bohemiancoding.com/sketch -->
    <title>提示</title>
    <desc>Created with Sketch.</desc>
    <defs></defs>
    <g id="Page-1" stroke="none" stroke-width="1" fill="none" fill-rule="evenodd">
        <g id="提示">
            <circle id="Oval-61" fill="#108EE9" cx="60" cy="60" r="60"></circle>
            <g id="Fill-1-+-Rectangle-351" transform="translate(50.000000, 34.000000)" fill="#FFFFFF">
                <path d="M14,3.99866667 C14,1.78933333 12.21,0 10,0 C7.79133333,0 6,1.78933333 6,3.99866667 C6,6.208 7.79133333,8 10,8 C12.21,8 14,6.208 14,3.99866667 Z" id="Fill-1"></path>
                <path d="M11.9362742,15.5010846 C11.9778644,15.3409481 12,15.1730404 12,15 C12,13.8877296 11.1007504,13 9.9914698,13 L2.0085302,13 C0.901950359,13 0,13.8954305 0,15 C0,16.1122704 0.899249601,17 2.0085302,17 L8,17 L8,49.9971408 C8,51.0981492 8.8954305,52 10,52 C10.1719068,52 10.3384499,51.9785801 10.4971809,51.9382776 C10.6553986,51.9785984 10.8211969,52 10.992017,52 L18.007983,52 C19.0998238,52 20,51.1045695 20,50 C20,48.8877296 19.1081436,48 18.007983,48 L12,48 L12,16.0028592 C12,15.8297687 11.9778692,15.6616003 11.9362742,15.5010846 Z" id="Rectangle-351"></path>
            </g>
        </g>
    </g>
</svg>