<?xml version="1.0" encoding="UTF-8"?>
<svg width="36px" height="36px" viewBox="0 0 36 36" version="1.1" xmlns="http://www.w3.org/2000/svg" xmlns:xlink="http://www.w3.org/1999/xlink">
    <!-- Generator: Sketch 42 (36781) - http://www.bohemiancoding.com/sketch -->
    <title>step-36-错误</title>
    <desc>Created with Sketch.</desc>
    <defs></defs>
    <g id="Page-1" stroke="none" stroke-width="1" fill="none" fill-rule="evenodd">
        <g id="step-36-错误" fill-rule="nonzero" fill="#F4333C">
            <path d="M18,36 C8.0586,36 0,27.9414 0,18 C0,8.0586 8.0586,0 18,0 C27.9414,0 36,8.0586 36,18 C36,27.9414 27.9414,36 18,36 Z M18,33 C26.2845,33 33,26.2845 33,18 C33,9.7155 26.2845,3 18,3 C9.7155,3 3,9.7155 3,18 C3,26.2845 9.7155,33 18,33 Z" id="Combined-Shape"></path>
            <path d="M18.1144535,15.8854494 L12.6937481,10.4501146 C12.0964352,9.85118977 11.1326728,9.85027117 10.5390245,10.4455216 C9.94079556,11.0453651 9.94720843,12.0080541 10.5436051,12.6060603 L15.9643106,18.0413951 L10.4089349,23.6117636 C9.86475727,24.1574098 9.8620089,25.0392624 10.4107672,25.5895016 C10.9558609,26.1360664 11.8390044,26.136985 12.383182,25.5913388 L17.9385577,20.0209703 L23.3995727,25.4967234 C23.9968855,26.0956482 24.9606479,26.0965668 25.5542962,25.5013163 C26.1525252,24.9014729 26.1461123,23.9387839 25.5497156,23.3407776 L20.0887007,17.8650246 L25.4278711,12.5114449 C25.9720487,11.9657986 25.9747971,11.0839461 25.4260389,10.5337069 C24.8809451,9.98714204 23.9978016,9.98622344 23.453624,10.5318697 L18.1144535,15.8854494 Z" id="Path"></path>
        </g>
    </g>
</svg>